<svg width="21" height="24" viewBox="0 0 21 24" fill="none" xmlns="http://www.w3.org/2000/svg">
<g clip-path="url(#clip0_2:22)">
<path d="M0.0704956 0.0554047L0.073799 0.321356C0.0756193 0.467629 0.49672 5.31064 1.00959 11.0836L1.94208 21.5798L6.13317 22.7607C8.43826 23.4102 10.3718 23.9448 10.43 23.9489C10.4881 23.953 12.4472 23.4238 14.7835 22.7727C18.5293 21.729 19.035 21.5718 19.0619 21.4426C19.0992 21.2626 20.9336 0.437781 20.9317 0.214975L20.9303 0.0554047H10.5004H0.0704956Z" fill="white"/>
<path d="M6.16635 22.8314L1.93799 21.6419L1.88274 21.3272C1.83362 21.0474 0 0.437541 0 0.165227C0 0.0666701 1.0706 0.055481 10.5004 0.055481C20.4541 0.055481 21.0008 0.0619419 21 0.179591C20.9967 0.687737 19.0987 21.5705 19.0521 21.6121C18.9932 21.6646 10.8091 23.9591 10.5356 23.9998C10.4581 24.0114 8.49194 23.4855 6.16635 22.8314ZM13.1666 18.6286C14.5878 18.2342 15.7711 17.8911 15.7962 17.8662C15.8212 17.8414 15.9876 16.1456 16.1657 14.0977C16.3439 12.0499 16.5077 10.2388 16.5297 10.073L16.5697 9.77158H13.4998H10.4299V11.0836V12.3956H12.0874H13.7448L13.7119 12.5552C13.6937 12.643 13.6232 13.3972 13.5552 14.2312C13.4831 15.115 13.3977 15.7817 13.3504 15.8293C13.3058 15.8742 12.6304 16.0823 11.8496 16.2918L10.4299 16.6726V18.0092C10.4299 18.9215 10.4542 19.3458 10.5063 19.3458C10.5483 19.3458 11.7454 19.0231 13.1666 18.6286V18.6286ZM16.5293 8.12268C16.4827 7.77517 16.0677 3.11413 16.0677 2.93838C16.0677 2.83163 15.8238 2.82138 13.2841 2.82138H10.5004V4.19335V5.56533L11.7513 5.61385C12.4393 5.64053 13.1633 5.68115 13.3603 5.7041L13.7184 5.74583L13.8053 6.81901C13.8531 7.40926 13.9101 8.01187 13.9319 8.15814L13.9716 8.42409H15.2706H16.5697L16.5293 8.12268Z" fill="#EAEBEC"/>
<path d="M6.13316 22.7607L1.94208 21.5798L1.00959 11.0836C0.49672 5.31068 0.0756093 0.467706 0.073789 0.321433L0.0704803 0.055481H10.5004H20.9303L20.9317 0.215052C20.9336 0.437858 19.0992 21.2627 19.0618 21.4427C19.035 21.5719 18.5293 21.7291 14.7835 22.7729C12.4472 23.4239 10.4881 23.9532 10.4299 23.9491C10.3718 23.945 8.43825 23.4102 6.13316 22.7607H6.13316ZM13.1698 18.6788C14.6186 18.2734 15.8245 17.9083 15.8496 17.8674C15.8748 17.8265 16.0478 16.044 16.2343 13.9064C16.4207 11.7688 16.5884 9.96395 16.6071 9.89569C16.6391 9.77843 16.3926 9.77158 12.1402 9.77158H7.63933L7.83096 7.73262C7.93636 6.61119 8.02513 5.69075 8.02823 5.6872C8.03134 5.68365 8.69191 5.66245 9.49618 5.64008C10.8149 5.6034 13.5345 5.70927 13.6255 5.80083C13.6595 5.83504 13.8831 8.04283 13.8831 8.34421C13.8831 8.49281 13.903 8.49501 15.2486 8.49501H16.6142L16.582 8.1936C16.5643 8.02782 16.4487 6.74328 16.325 5.33905L16.1001 2.78592L10.8337 2.76774C6.64402 2.75327 5.56722 2.76777 5.56676 2.83866C5.56639 2.88766 5.53573 3.19903 5.49852 3.53058C5.40847 4.33288 4.72167 12.0848 4.72167 12.2989V12.4666H9.20286H13.6841L13.6441 12.7325C13.6221 12.8788 13.5525 13.6208 13.4893 14.3814C13.4262 15.142 13.3541 15.784 13.3293 15.808C13.2636 15.8714 10.6274 16.5802 10.463 16.5786C10.3867 16.5779 9.70583 16.4069 8.95002 16.1987L7.5758 15.8202L7.52541 15.2249C7.49769 14.8975 7.45553 14.4302 7.43171 14.1864L7.3884 13.7431H6.05503H4.72167L4.72462 14.0091C4.73014 14.5064 5.05062 17.8566 5.09716 17.9034C5.15098 17.9576 10.2722 19.4063 10.4299 19.412C10.4881 19.4141 11.721 19.0841 13.1698 18.6788H13.1698Z" fill="#F0BE25"/>
<path d="M6.13316 22.7607L1.94208 21.5798L1.00959 11.0836C0.49672 5.31068 0.0756093 0.467706 0.073789 0.321433L0.0704803 0.055481H10.5004H20.9303L20.9317 0.215052C20.9336 0.437858 19.0992 21.2627 19.0618 21.4427C19.035 21.5719 18.5293 21.7291 14.7835 22.7729C12.4472 23.4239 10.4881 23.9532 10.4299 23.9491C10.3718 23.945 8.43825 23.4102 6.13316 22.7607H6.13316ZM13.949 21.1809C15.7926 20.669 17.3356 20.2142 17.378 20.1703C17.4438 20.102 19.0361 2.54015 19.0297 1.9526L19.0276 1.75757H14.764H10.5004V2.25401V2.75046H8.03387C6.10793 2.75046 5.56721 2.76989 5.56676 2.83911C5.56639 2.88787 5.53573 3.19903 5.49852 3.53058C5.40847 4.33288 4.72167 12.0848 4.72167 12.2989V12.4666H7.61104H10.5004V14.5232C10.5004 16.122 10.4808 16.5796 10.4123 16.5786C10.3639 16.5779 9.70583 16.4069 8.95002 16.1987L7.5758 15.8202L7.52541 15.2249C7.49769 14.8975 7.45553 14.4302 7.43171 14.1864L7.3884 13.7431H6.05503H4.72167L4.72462 14.0091C4.73306 14.7698 5.06006 17.8749 5.13675 17.9226C5.18336 17.9516 6.40926 18.3061 7.86096 18.7103L10.5004 19.4454V20.7786C10.5004 21.5118 10.5221 22.1117 10.5487 22.1117C10.5752 22.1117 12.1053 21.6929 13.949 21.1809ZM7.82354 7.75167C7.92485 6.64073 8.02155 5.7192 8.03843 5.70383C8.0553 5.68846 8.61615 5.66066 9.28476 5.64204L10.5004 5.6082V7.68989V9.77158H9.06987H7.63933L7.82354 7.75167Z" fill="#E4A126"/>
</g>
<defs>
<clipPath id="clip0_2:22">
<rect width="21" height="24" fill="white"/>
</clipPath>
</defs>
</svg>
