<svg width="21" height="24" viewBox="0 0 21 24" fill="none" xmlns="http://www.w3.org/2000/svg">
<path d="M1.90487 21.2308L0 0H20.9535L19.0487 21.2308L10.4535 23.6308" fill="#0C73B8"/>
<path d="M10.5 21.7846L17.4226 19.8923L19.0487 1.70769H10.5" fill="#30A9DC"/>
<path d="M10.5 9.59999H4.36725L4.59955 12.2308H10.5V9.59999ZM10.5 4.33846H3.90265L4.13495 6.92307H10.5V4.33846ZM10.5 16.3846L4.73893 14.8615L5.06415 17.6308L10.5 19.1077V16.3846Z" fill="#ECEDEE"/>
<path d="M10.5 12.2308H13.7058L13.3805 15.6L10.5 16.3846V19.1077L15.8429 17.6308L17.0509 4.33846H10.5V6.92307H14.2168L13.9381 9.59999H10.5V12.2308Z" fill="white"/>
</svg>
