<svg width="27" height="27" viewBox="0 0 27 27" fill="none" xmlns="http://www.w3.org/2000/svg">
<path d="M13.5 2.27814C10.5238 2.27814 7.66944 3.46044 5.56493 5.56495C3.46042 7.66946 2.27812 10.5238 2.27812 13.5C2.27812 16.4762 3.46042 19.3306 5.56493 21.4351C7.66944 23.5396 10.5238 24.7219 13.5 24.7219C16.4762 24.7219 19.3306 23.5396 21.4351 21.4351C23.5396 19.3306 24.7219 16.4762 24.7219 13.5C24.7219 10.5238 23.5396 7.66946 21.4351 5.56495C19.3306 3.46044 16.4762 2.27814 13.5 2.27814Z" fill="white"/>
<path d="M4.50056 13.5C4.50056 17.064 6.57056 20.1409 9.57319 21.6L5.27906 9.837C4.78013 10.9569 4.50056 12.1928 4.50056 13.5ZM19.5773 13.0466C19.5773 11.9346 18.9793 11.1622 18.6379 10.5649C18.1806 9.81731 17.7514 9.19406 17.7514 8.45437C17.7514 7.63031 18.5788 6.85687 19.4619 6.85687C19.5019 6.85687 19.5379 6.86025 19.5778 6.86137C17.9781 5.391 15.8445 4.5 13.5006 4.5C10.4693 4.5 7.7895 5.99962 6.15881 8.29631C6.28706 8.33794 6.3315 8.31825 6.5025 8.31825C7.44131 8.31825 8.901 8.20575 8.901 8.20575C9.38475 8.17369 9.44381 8.8875 8.95669 8.946C8.95669 8.946 8.47069 9.00506 7.92844 9.0315L11.2646 19.0316L13.2334 13.1248L11.7692 9.04781C11.2849 9.02194 10.8248 8.96231 10.8248 8.96231C10.3399 8.93081 10.3961 8.18887 10.8799 8.22206C10.8799 8.22206 12.3694 8.33456 13.2519 8.33456C14.1941 8.33456 15.6504 8.22206 15.6504 8.22206C16.1348 8.19 16.1933 8.90381 15.7089 8.96231C15.7089 8.96231 15.2196 9.02137 14.6784 9.04781L17.9921 18.9534L18.8916 15.9576C19.3494 14.7876 19.5773 13.8201 19.5773 13.0466ZM13.6581 14.2852L10.9581 22.1332C11.7658 22.3729 12.6174 22.5 13.5006 22.5C14.5474 22.5 15.5531 22.3177 16.4908 21.9898C16.4683 21.9499 16.443 21.9094 16.4244 21.8661L13.6581 14.2852ZM21.3992 9.17888C21.4391 9.46575 21.4599 9.77456 21.4599 10.1042C21.4599 11.0199 21.2878 12.0454 20.7743 13.3313L18.0264 21.2822C20.7028 19.7229 22.5 16.8199 22.5 13.5C22.5 11.9357 22.1001 10.4648 21.3992 9.17888Z" fill="#01579B"/>
<path d="M2.25 13.5C2.25 19.701 7.29563 24.75 13.4994 24.75C19.7044 24.75 24.75 19.701 24.75 13.5C24.75 7.299 19.7044 2.25 13.5 2.25C7.29563 2.25 2.25 7.299 2.25 13.5ZM3.37219 13.5C3.37219 7.91775 7.91381 3.37556 13.4994 3.37556C19.0851 3.37556 23.6278 7.91775 23.6278 13.5C23.6278 19.0822 19.0851 23.6256 13.5 23.6256C7.9155 23.6256 3.37219 19.0822 3.37219 13.5Z" fill="#01579B"/>
</svg>
