<svg width="399" height="274" viewBox="0 0 399 274" fill="none" xmlns="http://www.w3.org/2000/svg">
<path d="M56.915 13.6919H15.8799C14.6712 13.6919 13.6914 14.6717 13.6914 15.8804C13.6914 17.0891 14.6712 18.069 15.8799 18.069H56.915C58.1237 18.069 59.1035 17.0891 59.1035 15.8804C59.1035 14.6717 58.1237 13.6919 56.915 13.6919Z" fill="white" fill-opacity="0.6"/>
<path d="M26.0144 69.646C32.8202 69.646 38.3374 64.1288 38.3374 57.323C38.3374 50.5172 32.8202 45 26.0144 45C19.2086 45 13.6914 50.5172 13.6914 57.323C13.6914 64.1288 19.2086 69.646 26.0144 69.646Z" fill="#FF5A6D"/>
<path d="M166.702 57.2383H53.7408C52.7956 57.2383 52.0293 58.0046 52.0293 58.9498C52.0293 59.8951 52.7956 60.6613 53.7408 60.6613H166.702C167.647 60.6613 168.413 59.8951 168.413 58.9498C168.413 58.0046 167.647 57.2383 166.702 57.2383Z" fill="#FF5A6D"/>
<path d="M146.6 66.1382H53.42C52.652 66.1382 52.0293 66.7608 52.0293 67.5289C52.0293 68.297 52.652 68.9197 53.42 68.9197H146.6C147.368 68.9197 147.991 68.297 147.991 67.5289C147.991 66.7608 147.368 66.1382 146.6 66.1382Z" fill="white" fill-opacity="0.3"/>
<path d="M169.529 74.3965H53.5293C52.7009 74.3965 52.0293 75.0681 52.0293 75.8965C52.0293 76.7249 52.7009 77.3965 53.5293 77.3965H169.529C170.358 77.3965 171.029 76.7249 171.029 75.8965C171.029 75.0681 170.358 74.3965 169.529 74.3965Z" fill="white" fill-opacity="0.3"/>
<path d="M26.0144 133.646C32.8202 133.646 38.3374 128.129 38.3374 121.323C38.3374 114.517 32.8202 109 26.0144 109C19.2086 109 13.6914 114.517 13.6914 121.323C13.6914 128.129 19.2086 133.646 26.0144 133.646Z" fill="black" fill-opacity="0.2"/>
<path d="M173.548 116.566H53.7408C52.7956 116.566 52.0293 117.332 52.0293 118.277C52.0293 119.223 52.7956 119.989 53.7408 119.989H173.548C174.493 119.989 175.259 119.223 175.259 118.277C175.259 117.332 174.493 116.566 173.548 116.566Z" fill="black" fill-opacity="0.2"/>
<rect x="53" y="117" width="96" height="2" rx="1" fill="white"/>
<path d="M155.529 125.466H53.5293C52.7009 125.466 52.0293 126.137 52.0293 126.966C52.0293 127.794 52.7009 128.466 53.5293 128.466H155.529C156.358 128.466 157.029 127.794 157.029 126.966C157.029 126.137 156.358 125.466 155.529 125.466Z" fill="white" fill-opacity="0.3"/>
<path d="M116.529 133.942H53.5293C52.7009 133.942 52.0293 134.613 52.0293 135.442C52.0293 136.27 52.7009 136.942 53.5293 136.942H116.529C117.358 136.942 118.029 136.27 118.029 135.442C118.029 134.613 117.358 133.942 116.529 133.942Z" fill="white" fill-opacity="0.3"/>
<path d="M116.529 142.419H53.5293C52.7009 142.419 52.0293 143.091 52.0293 143.919C52.0293 144.747 52.7009 145.419 53.5293 145.419H116.529C117.358 145.419 118.029 144.747 118.029 143.919C118.029 143.091 117.358 142.419 116.529 142.419Z" fill="white" fill-opacity="0.3"/>
<path d="M26.0144 201.646C32.8202 201.646 38.3374 196.129 38.3374 189.323C38.3374 182.517 32.8202 177 26.0144 177C19.2086 177 13.6914 182.517 13.6914 189.323C13.6914 196.129 19.2086 201.646 26.0144 201.646Z" fill="black" fill-opacity="0.2"/>
<path d="M161.529 201.747H53.5293C52.7009 201.747 52.0293 202.419 52.0293 203.247C52.0293 204.075 52.7009 204.747 53.5293 204.747H161.529C162.358 204.747 163.029 204.075 163.029 203.247C163.029 202.419 162.358 201.747 161.529 201.747Z" fill="white" fill-opacity="0.3"/>
<path d="M111.529 210.224H53.5293C52.7009 210.224 52.0293 210.896 52.0293 211.724C52.0293 212.553 52.7009 213.224 53.5293 213.224H111.529C112.358 213.224 113.029 212.553 113.029 211.724C113.029 210.896 112.358 210.224 111.529 210.224Z" fill="white" fill-opacity="0.3"/>
<path d="M378.413 13.6919H227.799C224.018 13.6919 220.953 16.757 220.953 20.538V253.306C220.953 257.087 224.018 260.152 227.799 260.152H378.413C382.194 260.152 385.259 257.087 385.259 253.306V20.538C385.259 16.757 382.194 13.6919 378.413 13.6919Z" fill="white"/>
<path d="M378.413 13.6919H227.799C224.018 13.6919 220.953 16.757 220.953 20.538V253.306C220.953 257.087 224.018 260.152 227.799 260.152H378.413C382.194 260.152 385.259 257.087 385.259 253.306V20.538C385.259 16.757 382.194 13.6919 378.413 13.6919Z" fill="#007AFF"/>
<path opacity="0.43" d="M251.419 87.7725C246.638 92.357 242.881 100.521 245.714 105.178C247.321 107.82 250.577 108.556 261.7 109.143C282.232 110.226 297.819 109.123 299.252 109.017C313.646 107.95 311.397 107.498 321.31 107.01C332.522 106.458 337.641 106.926 346.28 104.84C353.222 103.164 357.231 102.196 361.216 98.7299C370.077 91.021 369.864 78.7468 369.828 76.7197C369.78 73.9378 369.239 64.3628 362.173 56.6235C351.528 44.9654 331.596 43.5163 321.023 51.3602C308.643 60.5453 316.158 77.234 304.994 83.1792C295.138 88.4284 285.456 77.4555 263.553 81.9262C260.297 82.5909 255.504 83.8554 251.419 87.7725Z" fill="#491EB8"/>
<path opacity="0.2" d="M244.74 120.905C243.251 120.905 242.045 120.546 241.232 119.622C238.916 116.988 240.446 110.437 244.207 106.877C248.279 103.025 253.997 103.844 263.469 105.203C266.752 105.674 270.473 106.207 274.729 106.632C284.013 107.558 293.639 107.715 303.339 107.098C303.39 107.095 303.432 107.133 303.435 107.183C303.438 107.232 303.4 107.275 303.351 107.278C293.641 107.895 284.005 107.738 274.711 106.811C270.451 106.386 266.728 105.852 263.444 105.381C254.025 104.031 248.339 103.215 244.331 107.008C240.631 110.509 239.107 116.932 241.368 119.503C243.379 121.791 248.004 120.447 253.36 118.891C254.82 118.467 256.329 118.028 257.856 117.643C269.348 114.743 276.044 116.394 282.521 117.991C288.327 119.422 294.332 120.902 303.854 119.248C313.588 117.556 319.743 113.922 325.173 110.715C331.477 106.993 336.456 104.053 344.324 106.055C348.443 107.103 351.485 109.061 353.93 110.634C356.97 112.589 359.371 114.133 362.261 113.03C365.046 111.967 367.227 108.838 368.402 104.219C369.461 100.059 369.593 94.9686 368.756 90.6025C366.291 77.7467 353.702 69.3551 343.109 67.9864C336.781 67.1683 333.124 69.0535 328.89 71.2361C324.914 73.2854 320.407 75.6083 312.767 75.9759C304.818 76.3588 300.038 74.3589 294.974 72.2424C290.525 70.3832 285.926 68.4605 278.885 68.1469C278.836 68.1445 278.797 68.1026 278.8 68.0528C278.802 68.0044 278.841 67.9667 278.889 67.9667C278.891 67.9667 278.892 67.9667 278.894 67.9669C285.966 68.282 290.58 70.2109 295.043 72.0761C300.088 74.1845 304.853 76.175 312.758 75.7961C320.359 75.4301 324.847 73.1168 328.807 71.0759C333.068 68.8798 336.749 66.9833 343.132 67.8075C353.788 69.1844 366.452 77.6295 368.933 90.5688C369.775 94.9595 369.641 100.079 368.577 104.263C367.387 108.941 365.167 112.114 362.326 113.198C359.349 114.335 356.915 112.768 353.833 110.785C351.272 109.138 348.37 107.271 344.28 106.23C336.483 104.246 331.532 107.169 325.265 110.871C319.821 114.085 313.651 117.728 303.885 119.425C294.326 121.087 288.302 119.602 282.478 118.166C275.725 116.501 269.348 114.929 257.9 117.818C256.377 118.202 254.869 118.64 253.411 119.064C250.105 120.024 247.074 120.905 244.74 120.905Z" fill="#76F7FF"/>
<path d="M330.985 98.9289C339.74 98.9289 346.837 91.8319 346.837 83.0771C346.837 74.3223 339.74 67.2251 330.985 67.2251C322.23 67.2251 315.133 74.3223 315.133 83.0771C315.133 91.8319 322.23 98.9289 330.985 98.9289Z" fill="#B3CAF8"/>
<path d="M340.796 97.8101H316.93V114.525H340.796V97.8101Z" fill="#76F7FF"/>
<path opacity="0.43" d="M293.265 71.8172C298.339 71.8172 302.453 67.7036 302.453 62.6291C302.453 57.5546 298.339 53.4409 293.265 53.4409C288.19 53.4409 284.076 57.5546 284.076 62.6291C284.076 67.7036 288.19 71.8172 293.265 71.8172Z" fill="#76F7FF"/>
<path d="M300.071 115.351C298.487 115.351 297.199 114.073 297.188 112.487C297.177 110.895 298.459 109.595 300.051 109.584L310.759 109.512L311.5 96.7374C311.592 95.1476 312.952 93.9317 314.546 94.0262C316.135 94.1184 317.349 95.4818 317.257 97.0717L316.456 110.862C316.314 113.318 314.276 115.254 311.816 115.271L300.091 115.351C300.084 115.351 300.077 115.351 300.071 115.351Z" fill="#B3825D"/>
<path d="M329.326 115.254C327.787 115.254 326.51 114.038 326.448 112.486C326.384 110.894 327.622 109.553 329.213 109.489L339.516 109.077V96.9043C339.516 95.3119 340.806 94.021 342.399 94.021C343.991 94.021 345.282 95.3119 345.282 96.9043V109.774C345.282 112.49 343.156 114.702 340.442 114.811L329.444 115.251C329.405 115.253 329.366 115.254 329.326 115.254Z" fill="#B3825D"/>
<path d="M363.359 118.12H247.876C247.03 118.12 246.344 117.434 246.344 116.588C246.344 115.742 247.03 115.056 247.876 115.056H363.359C364.205 115.056 364.891 115.742 364.891 116.588C364.891 117.434 364.205 118.12 363.359 118.12Z" fill="#18204D"/>
<path d="M310.82 100.366C310.82 89.9122 318.217 85.3501 327.856 85.3501C337.495 85.3501 345.725 89.9122 345.725 100.366" fill="#76F7FF"/>
<path d="M324.023 72.4354C324.779 72.4354 325.392 71.8223 325.392 71.066C325.392 70.3098 324.779 69.6968 324.023 69.6968C323.267 69.6968 322.654 70.3098 322.654 71.066C322.654 71.8223 323.267 72.4354 324.023 72.4354Z" fill="#F05936"/>
<path d="M331.662 72.4354C332.418 72.4354 333.031 71.8223 333.031 71.066C333.031 70.3098 332.418 69.6968 331.662 69.6968C330.906 69.6968 330.293 70.3098 330.293 71.066C330.293 71.8223 330.906 72.4354 331.662 72.4354Z" fill="#F05936"/>
<path d="M331.659 76.2125V87.7179C331.659 89.803 329.968 91.4933 327.883 91.4933C325.798 91.4933 324.107 89.803 324.107 87.7179V76.2125C324.107 75.432 324.343 74.7072 324.749 74.1056C325.427 73.0987 326.578 72.4365 327.883 72.4365C328.926 72.4365 329.869 72.8591 330.553 73.5425C331.236 74.2259 331.659 75.1697 331.659 76.2125Z" fill="#B3825D"/>
<path d="M331.658 74.5088L331.038 78.6569C331.038 80.7167 330.227 83.4596 328.233 83.6449C324.555 83.9869 324.107 81.9546 324.107 79.8693V72.4019C324.848 71.395 326.105 70.7329 327.532 70.7329C328.672 70.7329 329.703 71.1554 330.45 71.8388C331.196 72.5223 331.658 73.466 331.658 74.5088Z" fill="#303030"/>
<path d="M328.096 82.8947H327.669C325.702 82.8947 324.107 81.2997 324.107 79.3323V69.4921C324.107 67.5247 325.702 65.9297 327.669 65.9297H328.096C330.063 65.9297 331.658 67.5247 331.658 69.4921V79.3323C331.658 81.2997 330.063 82.8947 328.096 82.8947Z" fill="#B3825D"/>
<path d="M324.645 68.4521L331.155 68.4283C332.528 68.4227 332.642 63.6898 330.361 64.2572L329.932 64.5236C329.407 64.1522 328.779 63.9539 328.137 63.9566L324.627 63.9784C323.601 63.9826 322.773 64.8175 322.777 65.8434C322.781 66.8693 323.619 68.4562 324.645 68.4521Z" fill="#76F7FF"/>
<path d="M325.575 71.7824C325.773 71.7824 325.934 71.622 325.934 71.4241C325.934 71.2263 325.773 71.0659 325.575 71.0659C325.378 71.0659 325.217 71.2263 325.217 71.4241C325.217 71.622 325.378 71.7824 325.575 71.7824Z" fill="#303030"/>
<path d="M328.766 71.7824C328.964 71.7824 329.124 71.622 329.124 71.4241C329.124 71.2263 328.964 71.0659 328.766 71.0659C328.568 71.0659 328.408 71.2263 328.408 71.4241C328.408 71.622 328.568 71.7824 328.766 71.7824Z" fill="#303030"/>
<path d="M326.997 76.6159C326.879 76.6159 326.759 76.5749 326.654 76.4958C326.478 76.3643 326.356 76.1448 326.335 75.9224C326.304 75.5972 326.427 75.2933 326.547 74.9994L326.58 74.9169C326.907 74.1003 327.098 73.2411 327.148 72.3628L327.327 72.3729C327.277 73.2706 327.082 74.1491 326.747 74.9837L326.714 75.0672C326.602 75.341 326.487 75.6239 326.514 75.9055C326.53 76.0759 326.627 76.2512 326.761 76.3515C326.828 76.401 326.933 76.454 327.06 76.4297L327.095 76.6065C327.063 76.6129 327.03 76.6159 326.997 76.6159Z" fill="#303030"/>
<path d="M326.952 78.7466C326.738 78.7466 326.585 78.7117 326.572 78.7083L326.613 78.533C326.619 78.5344 327.277 78.6829 327.748 78.3276C328.049 78.101 328.214 77.7159 328.239 77.1836L328.419 77.192C328.391 77.7813 328.201 78.2121 327.856 78.4724C327.56 78.6949 327.211 78.7466 326.952 78.7466Z" fill="#303030"/>
<path d="M327.953 92.3814C327.833 92.3814 327.758 92.3767 327.743 92.3757C327.634 92.3682 327.552 92.2737 327.559 92.1645C327.567 92.0555 327.658 91.9723 327.77 91.9805C327.79 91.9812 329.81 92.1024 331.19 90.8119C332.062 89.9974 332.504 88.7933 332.504 87.2333C332.504 87.1237 332.592 87.0352 332.702 87.0352C332.811 87.0352 332.9 87.1237 332.9 87.2333C332.9 88.9092 332.415 90.2115 331.458 91.104C330.207 92.2713 328.537 92.3814 327.953 92.3814Z" fill="#B3CAF8"/>
<path d="M362.558 113.239L351.236 113.223L351.234 114.941L362.556 114.956L362.558 113.239Z" fill="#B3CAF8"/>
<path d="M361.227 111.519L349.906 111.503L349.904 113.221L361.225 113.236L361.227 111.519Z" fill="#18204D"/>
<path d="M362.942 109.803L351.621 109.788L351.619 111.505L362.94 111.521L362.942 109.803Z" fill="#76F7FF"/>
<path d="M298.331 114.798H291.416C291.416 113.661 292.337 112.74 293.474 112.74H296.273C297.41 112.74 298.331 113.661 298.331 114.798Z" fill="#76F7FF"/>
<path d="M356.42 119.07H260.065C259.834 119.07 259.646 118.883 259.646 118.651C259.646 118.42 259.834 118.233 260.065 118.233H356.42C356.651 118.233 356.839 118.42 356.839 118.651C356.839 118.883 356.651 119.07 356.42 119.07Z" fill="#B3CAF8"/>
<path d="M347.1 69.7453C349.698 69.7453 351.803 67.6399 351.803 65.0427C351.803 62.4456 349.698 60.3403 347.1 60.3403C344.503 60.3403 342.398 62.4456 342.398 65.0427C342.398 67.6399 344.503 69.7453 347.1 69.7453Z" fill="#76F7FF"/>
<path d="M325.928 70.1816L324.002 70.6456L324.044 70.8208L325.97 70.3568L325.928 70.1816Z" fill="#303030"/>
<path d="M328.325 70.1816L328.283 70.3568L330.209 70.8202L330.251 70.6449L328.325 70.1816Z" fill="#303030"/>
<path d="M330.236 69.1838C330.286 69.1838 330.326 69.1436 330.326 69.0939C330.326 69.0441 330.286 69.0039 330.236 69.0039C330.187 69.0039 330.146 69.0441 330.146 69.0939C330.146 69.1436 330.187 69.1838 330.236 69.1838Z" fill="#76F7FF"/>
<path d="M330.146 68.7904C330.196 68.7904 330.237 68.7501 330.237 68.7003C330.237 68.6506 330.196 68.6104 330.146 68.6104C330.097 68.6104 330.057 68.6506 330.057 68.7003C330.057 68.7501 330.097 68.7904 330.146 68.7904Z" fill="#76F7FF"/>
<path d="M329.473 68.7904C329.522 68.7904 329.563 68.7501 329.563 68.7003C329.563 68.6506 329.522 68.6104 329.473 68.6104C329.423 68.6104 329.383 68.6506 329.383 68.7003C329.383 68.7501 329.423 68.7904 329.473 68.7904Z" fill="#76F7FF"/>
<path d="M329.807 68.7904C329.856 68.7904 329.897 68.7501 329.897 68.7003C329.897 68.6506 329.856 68.6104 329.807 68.6104C329.757 68.6104 329.717 68.6506 329.717 68.7003C329.717 68.7501 329.757 68.7904 329.807 68.7904Z" fill="#76F7FF"/>
<path d="M331.207 68.7904C331.257 68.7904 331.297 68.7501 331.297 68.7003C331.297 68.6506 331.257 68.6104 331.207 68.6104C331.158 68.6104 331.117 68.6506 331.117 68.7003C331.117 68.7501 331.158 68.7904 331.207 68.7904Z" fill="#76F7FF"/>
<path d="M330.535 68.7904C330.585 68.7904 330.625 68.7501 330.625 68.7003C330.625 68.6506 330.585 68.6104 330.535 68.6104C330.486 68.6104 330.445 68.6506 330.445 68.7003C330.445 68.7501 330.486 68.7904 330.535 68.7904Z" fill="#76F7FF"/>
<path d="M330.87 68.7904C330.92 68.7904 330.961 68.7501 330.961 68.7003C330.961 68.6506 330.92 68.6104 330.87 68.6104C330.821 68.6104 330.781 68.6506 330.781 68.7003C330.781 68.7501 330.821 68.7904 330.87 68.7904Z" fill="#76F7FF"/>
<path d="M331.317 69.101C331.367 69.101 331.407 69.0607 331.407 69.0111C331.407 68.9613 331.367 68.9209 331.317 68.9209C331.267 68.9209 331.227 68.9613 331.227 69.0111C331.227 69.0607 331.267 69.101 331.317 69.101Z" fill="#76F7FF"/>
<path d="M330.61 69.1811C330.659 69.1811 330.7 69.1407 330.7 69.0909C330.7 69.0414 330.659 69.001 330.61 69.001C330.56 69.001 330.52 69.0414 330.52 69.0909C330.52 69.1407 330.56 69.1811 330.61 69.1811Z" fill="#76F7FF"/>
<path d="M330.983 69.1838C331.033 69.1838 331.073 69.1436 331.073 69.0939C331.073 69.0441 331.033 69.0039 330.983 69.0039C330.933 69.0039 330.893 69.0441 330.893 69.0939C330.893 69.1436 330.933 69.1838 330.983 69.1838Z" fill="#76F7FF"/>
<path d="M331.363 69.4338C331.413 69.4338 331.453 69.3936 331.453 69.3439C331.453 69.2941 331.413 69.2539 331.363 69.2539C331.314 69.2539 331.273 69.2941 331.273 69.3439C331.273 69.3936 331.314 69.4338 331.363 69.4338Z" fill="#76F7FF"/>
<path d="M330.623 69.5241C330.673 69.5241 330.713 69.4839 330.713 69.4341C330.713 69.3844 330.673 69.3442 330.623 69.3442C330.574 69.3442 330.533 69.3844 330.533 69.4341C330.533 69.4839 330.574 69.5241 330.623 69.5241Z" fill="#76F7FF"/>
<path d="M331.033 69.5168C331.083 69.5168 331.124 69.4766 331.124 69.4269C331.124 69.3771 331.083 69.3369 331.033 69.3369C330.984 69.3369 330.943 69.3771 330.943 69.4269C330.943 69.4766 330.984 69.5168 331.033 69.5168Z" fill="#76F7FF"/>
<path d="M331.386 69.7757C331.436 69.7757 331.477 69.7355 331.477 69.6857C331.477 69.636 331.436 69.5957 331.386 69.5957C331.337 69.5957 331.297 69.636 331.297 69.6857C331.297 69.7355 331.337 69.7757 331.386 69.7757Z" fill="#76F7FF"/>
<path d="M331.059 69.8601C331.109 69.8601 331.149 69.8199 331.149 69.7701C331.149 69.7204 331.109 69.6802 331.059 69.6802C331.01 69.6802 330.969 69.7204 330.969 69.7701C330.969 69.8199 331.01 69.8601 331.059 69.8601Z" fill="#76F7FF"/>
<path d="M331.418 70.1189C331.467 70.1189 331.508 70.0786 331.508 70.029C331.508 69.9792 331.467 69.939 331.418 69.939C331.368 69.939 331.328 69.9792 331.328 70.029C331.328 70.0786 331.368 70.1189 331.418 70.1189Z" fill="#76F7FF"/>
<path d="M331.084 70.2033C331.133 70.2033 331.174 70.1631 331.174 70.1133C331.174 70.0636 331.133 70.0234 331.084 70.0234C331.034 70.0234 330.994 70.0636 330.994 70.1133C330.994 70.1631 331.034 70.2033 331.084 70.2033Z" fill="#76F7FF"/>
<path d="M331.418 70.4643C331.467 70.4643 331.508 70.4239 331.508 70.3741C331.508 70.3246 331.467 70.2842 331.418 70.2842C331.368 70.2842 331.328 70.3246 331.328 70.3741C331.328 70.4239 331.368 70.4643 331.418 70.4643Z" fill="#76F7FF"/>
<path d="M331.084 70.5467C331.133 70.5467 331.174 70.5063 331.174 70.4567C331.174 70.407 331.133 70.3667 331.084 70.3667C331.034 70.3667 330.994 70.407 330.994 70.4567C330.994 70.5063 331.034 70.5467 331.084 70.5467Z" fill="#76F7FF"/>
<path d="M331.418 70.8073C331.467 70.8073 331.508 70.7671 331.508 70.7174C331.508 70.6676 331.467 70.6274 331.418 70.6274C331.368 70.6274 331.328 70.6676 331.328 70.7174C331.328 70.7671 331.368 70.8073 331.418 70.8073Z" fill="#76F7FF"/>
<path d="M331.084 70.8993C331.133 70.8993 331.174 70.8589 331.174 70.8093C331.174 70.7596 331.133 70.7192 331.084 70.7192C331.034 70.7192 330.994 70.7596 330.994 70.8093C330.994 70.8589 331.034 70.8993 331.084 70.8993Z" fill="#76F7FF"/>
<path d="M331.418 71.1584C331.467 71.1584 331.508 71.1182 331.508 71.0685C331.508 71.0187 331.467 70.9785 331.418 70.9785C331.368 70.9785 331.328 71.0187 331.328 71.0685C331.328 71.1182 331.368 71.1584 331.418 71.1584Z" fill="#76F7FF"/>
<path d="M331.084 71.2502C331.133 71.2502 331.174 71.21 331.174 71.1602C331.174 71.1106 331.133 71.0703 331.084 71.0703C331.034 71.0703 330.994 71.1106 330.994 71.1602C330.994 71.21 331.034 71.2502 331.084 71.2502Z" fill="#76F7FF"/>
<path d="M245.925 71.2583L285.186 72.6293C285.633 72.6448 286.273 73.1263 286.613 73.7033L288.229 76.441L288.384 76.4465L286.77 73.7086C286.365 73.0222 285.601 72.4484 285.068 72.4297L245.808 71.0586C245.276 71.0401 245.172 71.5839 245.577 72.2702L247.192 75.008L247.347 75.0133L245.732 72.2757C245.391 71.6987 245.479 71.2428 245.925 71.2583Z" fill="#B3CAF8"/>
<path fill-rule="evenodd" clip-rule="evenodd" d="M285.228 72.4511C285.171 72.439 285.117 72.4318 285.064 72.4299L245.803 71.0588C245.438 71.0461 245.275 71.2989 245.34 71.6809C245.37 71.855 245.447 72.0556 245.573 72.2704L247.189 75.0081L247.343 75.0134L245.728 72.2758C245.713 72.2514 245.7 72.2272 245.687 72.2033C245.578 72.0001 245.523 71.8146 245.52 71.6626C245.515 71.409 245.654 71.2491 245.921 71.2585L285.182 72.6294C285.188 72.6298 285.195 72.6301 285.201 72.6305C285.647 72.6589 286.274 73.1347 286.61 73.7034L288.225 76.4412L288.381 76.4467L286.765 73.7089C286.751 73.6848 286.736 73.661 286.721 73.6374C286.349 73.0496 285.724 72.5581 285.228 72.4511ZM245.915 71.4392L285.176 72.8102C285.346 72.8162 285.582 72.9158 285.827 73.1005C286.068 73.2817 286.296 73.5289 286.454 73.7953L288.119 76.6185L288.704 76.6389L286.921 73.617C286.705 73.2516 286.397 72.9192 286.071 72.6745C285.751 72.4331 285.391 72.2603 285.071 72.2491L245.81 70.878C245.646 70.8724 245.496 70.9095 245.377 70.9996C245.257 71.0903 245.187 71.2209 245.159 71.3665C245.106 71.6484 245.205 72.0025 245.417 72.3623L247.083 75.1854L247.667 75.2056L245.884 72.1839C245.723 71.912 245.684 71.7006 245.707 71.5789C245.718 71.5228 245.74 71.492 245.764 71.4742C245.789 71.4553 245.834 71.4365 245.915 71.4392Z" fill="#B3CAF8"/>
<path d="M304.668 104.05L303.627 102.286L292.653 83.6881L290.638 80.2731L290.483 80.2676L292.498 83.6826L303.471 102.28L304.512 104.044C304.852 104.62 304.766 105.077 304.319 105.062L265.058 103.691C264.612 103.675 263.97 103.192 263.631 102.617L263.103 101.722L259.775 96.0814L259.142 95.0088L255.814 89.3698L254.944 87.8953L251.616 82.255L249.601 78.84L249.447 78.8345L251.462 82.2495L254.79 87.8899L255.66 89.3643L258.987 95.0033L259.62 96.0759L262.948 101.716L263.476 102.611C263.881 103.298 264.644 103.872 265.176 103.89L304.437 105.261C304.97 105.28 305.073 104.736 304.668 104.05Z" fill="#B3CAF8"/>
<path fill-rule="evenodd" clip-rule="evenodd" d="M290.746 80.0952L292.812 83.5957L304.826 103.958C305.038 104.317 305.138 104.671 305.084 104.953C305.056 105.099 304.986 105.23 304.866 105.32C304.747 105.41 304.596 105.447 304.433 105.442L265.172 104.071C264.852 104.06 264.493 103.887 264.172 103.645C263.847 103.401 263.538 103.068 263.323 102.703L259.466 96.1673L251.308 82.3411L249.125 78.6416L249.709 78.6622L255.102 87.8029L259.3 94.9164L263.261 101.63L263.789 102.524C263.946 102.79 264.174 103.037 264.416 103.219C264.661 103.404 264.897 103.504 265.067 103.509L304.328 104.881C304.409 104.883 304.454 104.864 304.479 104.846C304.502 104.828 304.525 104.797 304.535 104.741C304.558 104.619 304.519 104.407 304.359 104.136L290.162 80.0747L290.746 80.0952ZM304.514 104.044C304.529 104.069 304.543 104.093 304.556 104.117C304.663 104.317 304.717 104.5 304.722 104.651C304.729 104.908 304.591 105.071 304.321 105.061L265.06 103.69C265.054 103.69 265.048 103.69 265.042 103.689C264.597 103.661 263.968 103.184 263.633 102.616L249.604 78.8395L249.449 78.834L263.478 102.611C263.492 102.635 263.507 102.658 263.522 102.682C263.894 103.27 264.52 103.762 265.016 103.869C265.072 103.881 265.126 103.888 265.178 103.89L304.439 105.261C304.808 105.274 304.971 105.017 304.902 104.631C304.872 104.459 304.795 104.261 304.67 104.049L290.641 80.2726L290.485 80.2671L304.514 104.044Z" fill="#B3CAF8"/>
<path d="M331.418 71.511C331.467 71.511 331.508 71.4706 331.508 71.421C331.508 71.3713 331.467 71.3311 331.418 71.3311C331.368 71.3311 331.328 71.3713 331.328 71.421C331.328 71.4706 331.368 71.511 331.418 71.511Z" fill="#76F7FF"/>
<path d="M330.701 69.8675C330.75 69.8675 330.791 69.8273 330.791 69.7775C330.791 69.7278 330.75 69.6875 330.701 69.6875C330.651 69.6875 330.611 69.7278 330.611 69.7775C330.611 69.8273 330.651 69.8675 330.701 69.8675Z" fill="#76F7FF"/>
<path d="M290.295 115.077H284.6L280.289 107.278L285.983 107.522L290.295 115.077Z" fill="#B3CAF8"/>
<path opacity="0.2" d="M289.645 114.025L284.094 114.066L283.188 112.508L288.739 112.467L289.645 114.025Z" fill="#303030"/>
<path d="M299.462 115.077H275.32V114.944C275.32 114.459 275.713 114.067 276.197 114.067H298.585C299.069 114.067 299.462 114.459 299.462 114.944V115.077Z" fill="#B3CAF8"/>
<path d="M240.192 74.7624L247.191 75.0068L247.345 75.0123L248.156 75.0405L287.417 76.4116L288.227 76.4398L288.383 76.4453L290.976 76.5359C291.794 76.5644 292.964 77.444 293.588 78.5012C294.211 79.5572 294.052 80.3916 293.234 80.363L290.641 80.2725L290.485 80.267L289.675 80.2387L250.414 78.8676L249.603 78.8394L249.449 78.8339L242.45 78.5895C241.631 78.5609 240.461 77.6802 239.838 76.6242C239.215 75.567 239.373 74.7338 240.192 74.7624Z" fill="#76F7FF"/>
<path d="M291.69 83.6556L275.125 83.0771L286.098 101.675L302.664 102.253L303.474 102.282L292.501 83.6838L291.69 83.6556Z" fill="#76F7FF"/>
<path d="M296.734 83.8303L292.465 83.6812L303.439 102.279L307.707 102.428L296.734 83.8303Z" fill="#76F7FF"/>
<path d="M242.879 81.9976L246.207 87.6379L256.022 87.934L252.694 82.2937L242.879 81.9976Z" fill="#76F7FF"/>
<path d="M272.063 82.969L252.426 82.2832L251.615 82.2549L254.943 87.8951L255.754 87.9235L275.392 88.6093L272.063 82.969Z" fill="#76F7FF"/>
<path d="M333.634 115.295H308.242V114.76C308.242 114.205 308.692 113.755 309.247 113.755H332.629C333.184 113.755 333.634 114.205 333.634 114.76V115.295Z" fill="#76F7FF"/>
<path d="M316.634 138.381H251.677C249.955 138.381 248.559 136.986 248.559 135.264V123.832C248.559 122.11 249.955 120.715 251.677 120.715H316.634C318.356 120.715 319.751 122.11 319.751 123.832V135.264C319.751 136.986 318.356 138.381 316.634 138.381Z" fill="#B3CAF8"/>
<path d="M363.036 138.381H325.109C323.388 138.381 321.992 136.986 321.992 135.264V123.832C321.992 122.11 323.388 120.715 325.109 120.715H363.036C364.757 120.715 366.153 122.11 366.153 123.832V135.264C366.153 136.986 364.757 138.381 363.036 138.381Z" fill="#B3CAF8"/>
<path d="M368.576 129.74H247.261C246.554 129.74 245.979 129.165 245.979 128.457C245.979 127.75 246.554 127.175 247.261 127.175H368.576C369.283 127.175 369.859 127.75 369.859 128.457C369.859 129.165 369.283 129.74 368.576 129.74ZM247.261 127.56C246.767 127.56 246.364 127.963 246.364 128.457C246.364 128.952 246.767 129.354 247.261 129.354H368.576C369.071 129.354 369.473 128.952 369.473 128.457C369.473 127.963 369.071 127.56 368.576 127.56H247.261Z" fill="#76F7FF"/>
<path d="M274.599 85.4396C274.565 85.4396 274.532 85.4203 274.517 85.3872L274.329 84.9778C274.308 84.9326 274.328 84.8791 274.373 84.8584C274.418 84.8376 274.472 84.8572 274.492 84.9025L274.681 85.3117C274.701 85.3571 274.682 85.4105 274.636 85.4314C274.624 85.437 274.611 85.4396 274.599 85.4396Z" fill="#303030"/>
<path d="M274.037 84.2173C274.004 84.2173 273.971 84.198 273.956 84.1648L273.582 83.353C273.561 83.3078 273.581 83.2542 273.626 83.2335C273.671 83.2128 273.725 83.2323 273.746 83.2777L274.119 84.0895C274.14 84.1348 274.12 84.1882 274.075 84.2089C274.063 84.2146 274.05 84.2173 274.037 84.2173ZM273.291 82.5936C273.257 82.5936 273.224 82.5743 273.209 82.5412L272.835 81.7294C272.815 81.6841 272.834 81.6307 272.88 81.61C272.924 81.5889 272.978 81.6088 272.999 81.6541L273.373 82.4659C273.393 82.5111 273.374 82.5647 273.328 82.5854C273.316 82.591 273.303 82.5936 273.291 82.5936ZM272.544 80.97C272.51 80.97 272.477 80.9507 272.462 80.9175L272.089 80.1057C272.068 80.0605 272.088 80.007 272.133 79.9863C272.178 79.9659 272.231 79.9851 272.252 80.0304L272.626 80.8422C272.646 80.8875 272.627 80.9409 272.582 80.9618C272.569 80.9673 272.557 80.97 272.544 80.97ZM271.797 79.3463C271.763 79.3463 271.73 79.327 271.715 79.2939L271.342 78.4822C271.321 78.437 271.341 78.3834 271.386 78.3627C271.431 78.3418 271.485 78.3613 271.506 78.4069L271.879 79.2186C271.9 79.2638 271.88 79.3174 271.835 79.3381C271.823 79.3437 271.81 79.3463 271.797 79.3463ZM271.05 77.7226C271.016 77.7226 270.984 77.7032 270.969 77.6702L270.595 76.8583C270.575 76.8131 270.594 76.7595 270.639 76.7388C270.684 76.7178 270.738 76.7376 270.759 76.783L271.132 77.5947C271.153 77.6401 271.133 77.6935 271.088 77.7144C271.076 77.72 271.063 77.7226 271.05 77.7226ZM270.304 76.0989C270.27 76.0989 270.237 76.0795 270.222 76.0465L269.848 75.2347C269.828 75.1895 269.847 75.136 269.892 75.1153C269.937 75.0942 269.991 75.1141 270.012 75.1594L270.385 75.9712C270.406 76.0164 270.386 76.0699 270.341 76.0907C270.329 76.0963 270.316 76.0989 270.304 76.0989ZM269.557 74.4753C269.523 74.4753 269.49 74.456 269.475 74.4229L269.102 73.611C269.081 73.5658 269.101 73.5124 269.146 73.4915C269.19 73.4712 269.244 73.4903 269.265 73.5357L269.639 74.3476C269.66 74.3928 269.64 74.4462 269.595 74.4671C269.582 74.4727 269.57 74.4753 269.557 74.4753ZM268.81 72.8518C268.776 72.8518 268.743 72.8323 268.728 72.7992L268.355 71.9874C268.334 71.9423 268.354 71.8887 268.399 71.868C268.444 71.8471 268.497 71.8668 268.518 71.9121L268.892 72.7239C268.913 72.7691 268.893 72.8227 268.848 72.8434C268.836 72.849 268.823 72.8518 268.81 72.8518ZM268.063 71.228C268.029 71.228 267.997 71.2087 267.982 71.1757L267.608 70.3637C267.587 70.3185 267.607 70.2651 267.652 70.2443C267.697 70.2234 267.751 70.2431 267.772 70.2884L268.145 71.1004C268.166 71.1455 268.146 71.1989 268.101 71.2198C268.089 71.2255 268.076 71.228 268.063 71.228ZM267.316 69.6045C267.282 69.6045 267.25 69.5851 267.235 69.5519L266.861 68.7402C266.841 68.695 266.86 68.6414 266.906 68.6207C266.951 68.6003 267.004 68.6195 267.025 68.6649L267.398 69.4766C267.419 69.5218 267.399 69.5754 267.354 69.5961C267.342 69.6017 267.329 69.6045 267.316 69.6045ZM266.57 67.9808C266.536 67.9808 266.503 67.9614 266.488 67.9284L266.114 67.1166C266.094 67.0713 266.113 67.0179 266.159 66.997C266.203 66.9764 266.257 66.9958 266.278 67.0413L266.652 67.8531C266.672 67.8983 266.653 67.9518 266.607 67.9725C266.595 67.9782 266.582 67.9808 266.57 67.9808ZM265.823 66.3572C265.789 66.3572 265.756 66.3379 265.741 66.3047L265.368 65.4927C265.347 65.4475 265.367 65.394 265.412 65.3733C265.457 65.3524 265.511 65.3721 265.532 65.4174L265.905 66.2294C265.926 66.2747 265.906 66.3281 265.86 66.3488C265.848 66.3545 265.835 66.3572 265.823 66.3572ZM265.076 64.7333C265.042 64.7333 265.01 64.714 264.994 64.6809L264.621 63.8692C264.6 63.8238 264.62 63.7704 264.665 63.7495C264.71 63.7287 264.764 63.7483 264.785 63.7939L265.158 64.6056C265.179 64.6508 265.159 64.7044 265.114 64.7251C265.102 64.7307 265.089 64.7333 265.076 64.7333ZM264.33 63.1098C264.295 63.1098 264.263 63.0904 264.248 63.0572L264.082 62.6971C264.006 62.5323 263.965 62.3587 263.961 62.1813C263.959 62.1315 263.999 62.09 264.049 62.0888C264.098 62.0947 264.14 62.127 264.141 62.1766C264.145 62.3296 264.18 62.4794 264.245 62.6218L264.411 62.9819C264.432 63.0273 264.412 63.0807 264.367 63.1015C264.355 63.107 264.342 63.1098 264.33 63.1098ZM264.345 61.446C264.324 61.446 264.303 61.439 264.286 61.4246C264.249 61.3921 264.244 61.3353 264.276 61.2974C264.487 61.0498 264.78 60.8909 265.101 60.8497C265.149 60.8418 265.195 60.8781 265.201 60.9277C265.208 60.977 265.173 61.0222 265.123 61.0285C264.847 61.064 264.595 61.2011 264.413 61.4143C264.396 61.4352 264.37 61.446 264.345 61.446ZM291.919 61.019H291.025C290.975 61.019 290.935 60.9787 290.935 60.9289C290.935 60.8791 290.975 60.8389 291.025 60.8389H291.919C291.969 60.8389 292.009 60.8791 292.009 60.9289C292.009 60.9787 291.969 61.019 291.919 61.019ZM290.132 61.019H289.238C289.188 61.019 289.148 60.9787 289.148 60.9289C289.148 60.8791 289.188 60.8389 289.238 60.8389H290.132C290.181 60.8389 290.222 60.8791 290.222 60.9289C290.222 60.9787 290.181 61.019 290.132 61.019ZM288.344 61.019H287.451C287.401 61.019 287.361 60.9787 287.361 60.9289C287.361 60.8791 287.401 60.8389 287.451 60.8389H288.344C288.394 60.8389 288.435 60.8791 288.435 60.9289C288.435 60.9787 288.394 61.019 288.344 61.019ZM286.557 61.019H285.664C285.614 61.019 285.574 60.9787 285.574 60.9289C285.574 60.8791 285.614 60.8389 285.664 60.8389H286.557C286.607 60.8389 286.647 60.8791 286.647 60.9289C286.647 60.9787 286.607 61.019 286.557 61.019ZM284.77 61.019H283.876C283.827 61.019 283.786 60.9787 283.786 60.9289C283.786 60.8791 283.827 60.8389 283.876 60.8389H284.77C284.82 60.8389 284.86 60.8791 284.86 60.9289C284.86 60.9787 284.82 61.019 284.77 61.019ZM282.983 61.019H282.089C282.04 61.019 281.999 60.9787 281.999 60.9289C281.999 60.8791 282.04 60.8389 282.089 60.8389H282.983C283.033 60.8389 283.073 60.8791 283.073 60.9289C283.073 60.9787 283.033 61.019 282.983 61.019ZM281.196 61.019H280.302C280.252 61.019 280.212 60.9787 280.212 60.9289C280.212 60.8791 280.252 60.8389 280.302 60.8389H281.196C281.246 60.8389 281.286 60.8791 281.286 60.9289C281.286 60.9787 281.246 61.019 281.196 61.019ZM279.409 61.019H278.515C278.465 61.019 278.425 60.9787 278.425 60.9289C278.425 60.8791 278.465 60.8389 278.515 60.8389H279.409C279.459 60.8389 279.499 60.8791 279.499 60.9289C279.499 60.9787 279.459 61.019 279.409 61.019ZM277.622 61.019H276.728C276.678 61.019 276.638 60.9787 276.638 60.9289C276.638 60.8791 276.678 60.8389 276.728 60.8389H277.622C277.671 60.8389 277.712 60.8791 277.712 60.9289C277.712 60.9787 277.671 61.019 277.622 61.019ZM275.834 61.019H274.941C274.891 61.019 274.851 60.9787 274.851 60.9289C274.851 60.8791 274.891 60.8389 274.941 60.8389H275.834C275.884 60.8389 275.924 60.8791 275.924 60.9289C275.924 60.9787 275.884 61.019 275.834 61.019ZM274.047 61.019H273.154C273.104 61.019 273.064 60.9787 273.064 60.9289C273.064 60.8791 273.104 60.8389 273.154 60.8389H274.047C274.097 60.8389 274.137 60.8791 274.137 60.9289C274.137 60.9787 274.097 61.019 274.047 61.019ZM272.26 61.019H271.366C271.317 61.019 271.276 60.9787 271.276 60.9289C271.276 60.8791 271.317 60.8389 271.366 60.8389H272.26C272.31 60.8389 272.35 60.8791 272.35 60.9289C272.35 60.9787 272.31 61.019 272.26 61.019ZM270.473 61.019H269.579C269.529 61.019 269.489 60.9787 269.489 60.9289C269.489 60.8791 269.529 60.8389 269.579 60.8389H270.473C270.523 60.8389 270.563 60.8791 270.563 60.9289C270.563 60.9787 270.523 61.019 270.473 61.019ZM268.686 61.019H267.792C267.742 61.019 267.702 60.9787 267.702 60.9289C267.702 60.8791 267.742 60.8389 267.792 60.8389H268.686C268.736 60.8389 268.776 60.8791 268.776 60.9289C268.776 60.9787 268.736 61.019 268.686 61.019ZM266.899 61.019H266.005C265.955 61.019 265.915 60.9787 265.915 60.9289C265.915 60.8791 265.955 60.8389 266.005 60.8389H266.899C266.948 60.8389 266.989 60.8791 266.989 60.9289C266.989 60.9787 266.948 61.019 266.899 61.019Z" fill="#303030"/>
<path d="M293.266 61.019H292.815C292.765 61.019 292.725 60.9787 292.725 60.9289C292.725 60.8791 292.765 60.8389 292.815 60.8389H293.266C293.316 60.8389 293.356 60.8791 293.356 60.9289C293.356 60.9787 293.316 61.019 293.266 61.019Z" fill="#303030"/>
<path d="M276.728 86.6715C276.953 86.1074 276.441 85.3726 275.583 85.0307C274.725 84.6886 273.848 84.8686 273.623 85.4329C273.398 85.997 273.911 86.7318 274.768 87.0737C275.626 87.4159 276.503 87.2358 276.728 86.6715Z" fill="#303030"/>
<path d="M293.787 62.4719C292.89 62.4719 292.141 61.7811 292.118 60.932C292.108 60.5353 292.256 60.1581 292.536 59.87C292.839 59.5587 293.255 59.3872 293.708 59.3872C294.605 59.3872 295.353 60.078 295.376 60.9271C295.387 61.324 295.239 61.701 294.958 61.9892C294.655 62.3006 294.239 62.4719 293.787 62.4719ZM293.708 59.5674C293.304 59.5674 292.934 59.7194 292.666 59.9957C292.419 60.2486 292.289 60.5793 292.298 60.9271C292.319 61.6796 292.987 62.2917 293.787 62.2917C294.19 62.2917 294.561 62.1397 294.829 61.8634C295.075 61.6106 295.206 61.2798 295.196 60.932C295.176 60.1795 294.508 59.5674 293.708 59.5674Z" fill="#303030"/>
<path d="M293.747 61.6401C294.14 61.6401 294.457 61.3223 294.457 60.9302C294.457 60.5382 294.14 60.2202 293.747 60.2202C293.355 60.2202 293.037 60.5382 293.037 60.9302C293.037 61.3223 293.355 61.6401 293.747 61.6401Z" fill="#76F7FF"/>
<path d="M295.245 64.3072H286.585C286.501 64.3072 286.434 64.2396 286.434 64.1561C286.434 64.0725 286.501 64.0049 286.585 64.0049H295.245C295.328 64.0049 295.396 64.0725 295.396 64.1561C295.396 64.2396 295.328 64.3072 295.245 64.3072Z" fill="#76F7FF"/>
<path d="M295.245 65.1931H286.585C286.501 65.1931 286.434 65.1254 286.434 65.0419C286.434 64.9582 286.501 64.8906 286.585 64.8906H295.245C295.328 64.8906 295.396 64.9582 295.396 65.0419C295.396 65.1254 295.328 65.1931 295.245 65.1931Z" fill="#76F7FF"/>
<path d="M249.066 53.5923H240.407C240.323 53.5923 240.256 53.5248 240.256 53.4412C240.256 53.3576 240.323 53.29 240.407 53.29H249.066C249.15 53.29 249.218 53.3576 249.218 53.4412C249.218 53.5248 249.15 53.5923 249.066 53.5923Z" fill="#76F7FF"/>
<path d="M249.066 54.8609H240.407C240.323 54.8609 240.256 54.7933 240.256 54.7098C240.256 54.6262 240.323 54.5586 240.407 54.5586H249.066C249.15 54.5586 249.218 54.6262 249.218 54.7098C249.218 54.7933 249.15 54.8609 249.066 54.8609Z" fill="#76F7FF"/>
<path d="M259.895 95.0035L256.567 89.3645L254.658 89.3296L257.985 94.9686L259.895 95.0035Z" fill="#18204D"/>
<path d="M259.955 95.0373L264.639 95.2009L261.312 89.562L256.628 89.3984L255.818 89.3701L259.145 95.0091L259.955 95.0373Z" fill="#18204D"/>
<path d="M258.617 96.041L261.945 101.681L263.468 101.716L260.14 96.0761L258.617 96.041Z" fill="#18204D"/>
<path d="M279.59 95.7234L276.263 90.0845L269.611 89.8521L272.938 95.491L279.59 95.7234Z" fill="#18204D"/>
<path d="M272.115 95.4612L268.787 89.822L262.135 89.5898L265.463 95.2289L272.115 95.4612Z" fill="#18204D"/>
<path d="M253.831 89.3009L247.178 89.0684L250.505 94.7076L257.159 94.9398L253.831 89.3009Z" fill="#18204D"/>
<path d="M280.224 96.7957L273.572 96.5635L276.899 102.204L283.552 102.436L280.224 96.7957Z" fill="#18204D"/>
<path d="M266.096 96.3027L269.424 101.943L276.076 102.176L272.748 96.5349L266.096 96.3027Z" fill="#18204D"/>
<path d="M260.591 96.1094L259.781 96.0811L263.109 101.722L263.919 101.75L268.603 101.914L265.275 96.2728L260.591 96.1094Z" fill="#18204D"/>
<path d="M251.141 95.7803L254.469 101.421L261.122 101.653L257.794 96.0127L251.141 95.7803Z" fill="#18204D"/>
<path opacity="0.160784" d="M302.794 103.283L302.14 102.175L286.894 76.3359L285.666 74.255C285.309 73.6498 284.639 73.1458 284.17 73.1295L246.609 71.8178C246.14 71.8014 246.048 72.2787 246.405 72.8839L247.633 74.9648L249.891 78.7921L251.906 82.2071L255.234 87.8474L256.104 89.3219L259.543 95.1503L260.064 96.0335L263.392 101.674L263.533 101.912C263.89 102.517 264.561 103.021 265.03 103.038L302.591 104.349C303.06 104.366 303.151 103.888 302.794 103.283Z" fill="#18204D"/>
<path d="M362.037 150.613H244.037C242.656 150.613 241.537 151.732 241.537 153.113C241.537 154.494 242.656 155.613 244.037 155.613H362.037C363.418 155.613 364.537 154.494 364.537 153.113C364.537 151.732 363.418 150.613 362.037 150.613Z" fill="white" fill-opacity="0.6"/>
<path d="M334.037 167.613H272.037C270.656 167.613 269.537 168.732 269.537 170.113C269.537 171.494 270.656 172.613 272.037 172.613H334.037C335.418 172.613 336.537 171.494 336.537 170.113C336.537 168.732 335.418 167.613 334.037 167.613Z" fill="white" fill-opacity="0.6"/>
<path d="M349.627 184.613H256.447C255.679 184.613 255.057 185.235 255.057 186.004C255.057 186.772 255.679 187.394 256.447 187.394H349.627C350.395 187.394 351.018 186.772 351.018 186.004C351.018 185.235 350.395 184.613 349.627 184.613Z" fill="white" fill-opacity="0.3"/>
<path d="M299.615 210.349C299.615 204.299 294.71 199.395 288.661 199.395C282.611 199.395 277.707 204.299 277.707 210.349C277.707 216.398 282.611 221.303 288.661 221.303C294.71 221.303 299.615 216.398 299.615 210.349Z" fill="white" fill-opacity="0.7"/>
<path d="M328.368 210.349C328.368 204.299 323.464 199.395 317.415 199.395C311.365 199.395 306.461 204.299 306.461 210.349C306.461 216.398 311.365 221.303 317.415 221.303C323.464 221.303 328.368 216.398 328.368 210.349Z" fill="white" fill-opacity="0.7"/>
<path fill-rule="evenodd" clip-rule="evenodd" d="M360.614 49.2903C366.664 49.2903 371.568 44.3861 371.568 38.3365C371.568 32.2869 366.664 27.3828 360.614 27.3828C354.564 27.3828 349.66 32.2869 349.66 38.3365C349.66 44.3861 354.564 49.2903 360.614 49.2903Z" fill="#18204D"/>
<path d="M368.767 38.0222C368.767 36.9777 367.459 35.9878 365.453 35.374C365.916 33.33 365.71 31.7038 364.804 31.1832C364.595 31.0611 364.351 31.0032 364.084 31.0032V31.7199C364.232 31.7199 364.351 31.7488 364.451 31.8035C364.888 32.0542 365.077 33.0086 364.929 34.2363C364.894 34.5384 364.836 34.8566 364.765 35.1812C364.136 35.0269 363.448 34.908 362.725 34.8309C362.291 34.2363 361.841 33.6964 361.388 33.224C362.435 32.2502 363.419 31.7167 364.087 31.7167V31C363.204 31 362.047 31.6299 360.877 32.7226C359.707 31.6364 358.55 31.0129 357.666 31.0129V31.7296C358.331 31.7296 359.318 32.2598 360.366 33.2272C359.916 33.6996 359.466 34.2363 359.039 34.8309C358.312 34.908 357.624 35.0269 356.995 35.1844C356.921 34.863 356.866 34.5513 356.827 34.2524C356.676 33.0247 356.863 32.0702 357.297 31.8163C357.393 31.7585 357.518 31.7328 357.666 31.7328V31.0161C357.396 31.0161 357.152 31.0739 356.94 31.1961C356.037 31.7167 355.834 33.3397 356.3 35.3772C354.301 35.9943 353 36.9809 353 38.0222C353 39.0667 354.308 40.0565 356.313 40.6703C355.85 42.7143 356.056 44.3405 356.962 44.8611C357.171 44.9832 357.416 45.0411 357.685 45.0411C358.569 45.0411 359.726 44.4112 360.896 43.3185C362.066 44.4048 363.223 45.0282 364.107 45.0282C364.377 45.0282 364.621 44.9704 364.833 44.8483C365.736 44.3276 365.939 42.7047 365.473 40.6671C367.465 40.0533 368.767 39.0634 368.767 38.0222ZM364.582 35.8786C364.463 36.2931 364.316 36.7206 364.148 37.148C364.017 36.8909 363.878 36.6338 363.727 36.3767C363.58 36.1196 363.422 35.8689 363.265 35.6247C363.721 35.6922 364.161 35.7757 364.582 35.8786ZM363.11 39.3013C362.86 39.7351 362.603 40.1465 362.336 40.5289C361.857 40.5707 361.372 40.5932 360.883 40.5932C360.398 40.5932 359.913 40.5707 359.437 40.5321C359.17 40.1497 358.91 39.7415 358.659 39.3109C358.415 38.8899 358.193 38.4625 357.991 38.0318C358.19 37.6012 358.415 37.1705 358.656 36.7495C358.907 36.3156 359.164 35.9043 359.431 35.5218C359.909 35.4801 360.395 35.4576 360.883 35.4576C361.369 35.4576 361.854 35.4801 362.329 35.5186C362.596 35.9011 362.856 36.3092 363.107 36.7399C363.351 37.1609 363.573 37.5883 363.776 38.019C363.573 38.4496 363.351 38.8802 363.11 39.3013ZM364.148 38.8835C364.322 39.3141 364.47 39.7448 364.592 40.1626C364.171 40.2654 363.727 40.3522 363.268 40.4197C363.425 40.1722 363.583 39.9183 363.731 39.658C363.878 39.4009 364.017 39.1406 364.148 38.8835ZM360.89 42.3126C360.591 42.0041 360.292 41.6602 359.996 41.2842C360.285 41.297 360.581 41.3067 360.88 41.3067C361.182 41.3067 361.481 41.3002 361.773 41.2842C361.484 41.6602 361.185 42.0041 360.89 42.3126ZM358.499 40.4197C358.042 40.3522 357.602 40.2686 357.181 40.1658C357.3 39.7512 357.448 39.3238 357.615 38.8963C357.747 39.1534 357.885 39.4105 358.036 39.6676C358.187 39.9247 358.341 40.1754 358.499 40.4197ZM360.874 33.7318C361.172 34.0403 361.471 34.3842 361.767 34.7602C361.478 34.7473 361.182 34.7377 360.883 34.7377C360.581 34.7377 360.282 34.7441 359.99 34.7602C360.279 34.3842 360.578 34.0403 360.874 33.7318ZM358.495 35.6247C358.338 35.8721 358.18 36.126 358.033 36.3863C357.885 36.6434 357.747 36.9006 357.615 37.1577C357.441 36.727 357.293 36.2964 357.171 35.8786C357.592 35.7789 358.036 35.6922 358.495 35.6247ZM355.587 39.6483C354.449 39.1631 353.713 38.5267 353.713 38.0222C353.713 37.5176 354.449 36.8781 355.587 36.396C355.863 36.2771 356.165 36.171 356.477 36.0714C356.66 36.7013 356.901 37.3569 357.2 38.0286C356.905 38.6971 356.667 39.3495 356.487 39.9762C356.169 39.8765 355.866 39.7673 355.587 39.6483ZM357.316 44.2409C356.879 43.9902 356.689 43.0357 356.837 41.808C356.872 41.5059 356.93 41.1878 357.001 40.8632C357.631 41.0174 358.319 41.1363 359.042 41.2135C359.476 41.808 359.926 42.3479 360.379 42.8204C359.331 43.7941 358.348 44.3276 357.679 44.3276C357.534 44.3244 357.412 44.2955 357.316 44.2409ZM364.939 41.7919C365.09 43.0196 364.904 43.9741 364.47 44.228C364.373 44.2859 364.248 44.3116 364.1 44.3116C363.435 44.3116 362.448 43.7813 361.401 42.8139C361.851 42.3415 362.301 41.8048 362.728 41.2103C363.454 41.1331 364.142 41.0142 364.772 40.8567C364.846 41.1813 364.904 41.4931 364.939 41.7919ZM366.176 39.6483C365.9 39.7673 365.598 39.8733 365.286 39.9729C365.103 39.343 364.862 38.6874 364.563 38.0157C364.859 37.3473 365.097 36.6949 365.276 36.0682C365.595 36.1678 365.897 36.2771 366.18 36.396C367.317 36.8813 368.053 37.5176 368.053 38.0222C368.05 38.5267 367.314 39.1663 366.176 39.6483Z" fill="#61DAFB"/>
<path d="M360.879 39.4911C361.69 39.4911 362.347 38.8336 362.347 38.0224C362.347 37.2113 361.69 36.5537 360.879 36.5537C360.067 36.5537 359.41 37.2113 359.41 38.0224C359.41 38.8336 360.067 39.4911 360.879 39.4911Z" fill="#61DAFB"/>
<path d="M56.2643 46.4227H55.3116V49H53.5516V41.6993H56.4247C57.2905 41.6993 57.9674 41.8915 58.4555 42.2759C58.9435 42.6603 59.1876 43.2035 59.1876 43.9055C59.1876 44.4136 59.0839 44.8348 58.8767 45.1691C58.6728 45.5034 58.3519 45.7742 57.9139 45.9814L59.4383 48.9248V49H57.5529L56.2643 46.4227ZM55.3116 45.0638H56.4247C56.759 45.0638 57.0097 44.9769 57.1769 44.8031C57.3473 44.6259 57.4326 44.3802 57.4326 44.066C57.4326 43.7518 57.3473 43.5061 57.1769 43.3289C57.0064 43.1484 56.7557 43.0581 56.4247 43.0581H55.3116V45.0638ZM62.7978 49.1003C61.9655 49.1003 61.2919 48.8529 60.7771 48.3582C60.2623 47.8601 60.0049 47.2133 60.0049 46.4177V46.2773C60.0049 45.7224 60.1068 45.2326 60.3108 44.8081C60.518 44.3836 60.8189 44.056 61.2133 43.8253C61.6078 43.5913 62.0758 43.4743 62.6173 43.4743C63.3795 43.4743 63.9812 43.7117 64.4224 44.1863C64.8637 44.6577 65.0843 45.3162 65.0843 46.1619V46.8188H61.7248C61.7849 47.123 61.917 47.362 62.1209 47.5358C62.3248 47.7097 62.5889 47.7966 62.9131 47.7966C63.448 47.7966 63.8658 47.6094 64.1667 47.235L64.9389 48.1476C64.7283 48.4384 64.4291 48.6707 64.0413 48.8446C63.6569 49.015 63.2424 49.1003 62.7978 49.1003ZM62.6073 44.778C62.1125 44.778 61.8184 45.1056 61.7248 45.7608H63.4296V45.6304C63.4363 45.3597 63.3678 45.1507 63.224 45.0037C63.0803 44.8532 62.8747 44.778 62.6073 44.778ZM68.6093 47.4757C68.6093 47.3319 68.5341 47.2166 68.3837 47.1297C68.2332 47.0428 67.9474 46.9525 67.5262 46.8589C67.105 46.7653 66.7574 46.6433 66.4833 46.4929C66.2092 46.3391 66.0002 46.1536 65.8565 45.9363C65.7128 45.719 65.6409 45.47 65.6409 45.1892C65.6409 44.6911 65.8465 44.2816 66.2576 43.9607C66.6688 43.6364 67.207 43.4743 67.8722 43.4743C68.5876 43.4743 69.1625 43.6364 69.5971 43.9607C70.0317 44.2849 70.249 44.7112 70.249 45.2393H68.5542C68.5542 44.8048 68.3252 44.5875 67.8672 44.5875C67.69 44.5875 67.5413 44.6376 67.4209 44.7379C67.3006 44.8348 67.2404 44.9569 67.2404 45.1039C67.2404 45.2544 67.314 45.3764 67.4611 45.47C67.6081 45.5636 67.8421 45.6405 68.163 45.7006C68.4873 45.7608 68.7714 45.8327 69.0155 45.9162C69.8311 46.197 70.2389 46.7001 70.2389 47.4255C70.2389 47.9203 70.0183 48.3231 69.5771 48.634C69.1391 48.9448 68.5709 49.1003 67.8722 49.1003C67.4076 49.1003 66.9931 49.0167 66.6287 48.8496C66.2643 48.6824 65.9802 48.4551 65.7763 48.1676C65.5724 47.8802 65.4704 47.5776 65.4704 47.2601H67.0499C67.0566 47.5108 67.1401 47.6946 67.3006 47.8116C67.4611 47.9253 67.6666 47.9821 67.9173 47.9821C68.148 47.9821 68.3202 47.9353 68.4338 47.8417C68.5508 47.7481 68.6093 47.6261 68.6093 47.4757ZM76.0705 46.3274C76.0705 47.1698 75.88 47.8434 75.4989 48.3481C75.1211 48.8496 74.6097 49.1003 73.9645 49.1003C73.4664 49.1003 73.0569 48.9181 72.736 48.5537V51.0859H71.0462V43.5746H72.6257L72.6759 44.076C73.0001 43.6749 73.4263 43.4743 73.9545 43.4743C74.623 43.4743 75.1429 43.7217 75.5139 44.2164C75.885 44.7078 76.0705 45.3847 76.0705 46.2472V46.3274ZM74.3807 46.2221C74.3807 45.2594 74.0999 44.778 73.5383 44.778C73.1372 44.778 72.8697 44.9218 72.736 45.2092V47.3453C72.8831 47.6462 73.1539 47.7966 73.5483 47.7966C74.0865 47.7966 74.364 47.3319 74.3807 46.4026V46.2221ZM76.607 46.2372C76.607 45.6956 76.7123 45.2143 76.9229 44.7931C77.1335 44.3685 77.436 44.0426 77.8305 43.8153C78.2249 43.588 78.6879 43.4743 79.2194 43.4743C80.0317 43.4743 80.6719 43.7267 81.1399 44.2315C81.6079 44.7329 81.8419 45.4165 81.8419 46.2823V46.3425C81.8419 47.1882 81.6062 47.8601 81.1349 48.3582C80.6669 48.8529 80.0317 49.1003 79.2295 49.1003C78.4573 49.1003 77.8372 48.8696 77.3692 48.4083C76.9012 47.9437 76.6488 47.3152 76.612 46.523L76.607 46.2372ZM78.2968 46.3425C78.2968 46.8439 78.3754 47.2116 78.5325 47.4456C78.6896 47.6796 78.9219 47.7966 79.2295 47.7966C79.8312 47.7966 80.1387 47.3336 80.1521 46.4076V46.2372C80.1521 45.2644 79.8412 44.778 79.2194 44.778C78.6545 44.778 78.3486 45.1975 78.3018 46.0366L78.2968 46.3425ZM84.1384 43.5746L84.1936 44.2114C84.5679 43.72 85.0844 43.4743 85.7429 43.4743C86.3079 43.4743 86.7291 43.6431 87.0065 43.9808C87.2873 44.3184 87.4327 44.8265 87.4428 45.5051V49H85.748V45.5753C85.748 45.3012 85.6928 45.1006 85.5825 44.9736C85.4722 44.8432 85.2716 44.778 84.9808 44.778C84.6498 44.778 84.4041 44.9084 84.2437 45.1691V49H82.5539V43.5746H84.1384ZM91.2235 47.4757C91.2235 47.3319 91.1483 47.2166 90.9979 47.1297C90.8474 47.0428 90.5616 46.9525 90.1404 46.8589C89.7192 46.7653 89.3716 46.6433 89.0975 46.4929C88.8234 46.3391 88.6144 46.1536 88.4707 45.9363C88.327 45.719 88.2551 45.47 88.2551 45.1892C88.2551 44.6911 88.4607 44.2816 88.8718 43.9607C89.283 43.6364 89.8212 43.4743 90.4864 43.4743C91.2018 43.4743 91.7767 43.6364 92.2113 43.9607C92.6459 44.2849 92.8632 44.7112 92.8632 45.2393H91.1684C91.1684 44.8048 90.9394 44.5875 90.4814 44.5875C90.3042 44.5875 90.1555 44.6376 90.0351 44.7379C89.9148 44.8348 89.8546 44.9569 89.8546 45.1039C89.8546 45.2544 89.9282 45.3764 90.0752 45.47C90.2223 45.5636 90.4563 45.6405 90.7772 45.7006C91.1015 45.7608 91.3856 45.8327 91.6297 45.9162C92.4453 46.197 92.8531 46.7001 92.8531 47.4255C92.8531 47.9203 92.6325 48.3231 92.1913 48.634C91.7533 48.9448 91.1851 49.1003 90.4864 49.1003C90.0218 49.1003 89.6073 49.0167 89.2429 48.8496C88.8785 48.6824 88.5944 48.4551 88.3905 48.1676C88.1866 47.8802 88.0846 47.5776 88.0846 47.2601H89.6641C89.6708 47.5108 89.7543 47.6946 89.9148 47.8116C90.0752 47.9253 90.2808 47.9821 90.5315 47.9821C90.7622 47.9821 90.9344 47.9353 91.048 47.8417C91.165 47.7481 91.2235 47.6261 91.2235 47.4757ZM95.4305 49H93.7356V43.5746H95.4305V49ZM93.6354 42.1756C93.6354 41.9349 93.7223 41.7377 93.8961 41.5839C94.0699 41.4302 94.2956 41.3533 94.573 41.3533C94.8505 41.3533 95.0761 41.4302 95.2499 41.5839C95.4238 41.7377 95.5107 41.9349 95.5107 42.1756C95.5107 42.4163 95.4238 42.6135 95.2499 42.7673C95.0761 42.9211 94.8505 42.998 94.573 42.998C94.2956 42.998 94.0699 42.9211 93.8961 42.7673C93.7223 42.6135 93.6354 42.4163 93.6354 42.1756ZM98.6396 46.9893L99.497 43.5746H101.277L99.507 49H97.7821L96.0121 43.5746H97.7972L98.6396 46.9893ZM104.336 49.1003C103.503 49.1003 102.83 48.8529 102.315 48.3582C101.8 47.8601 101.543 47.2133 101.543 46.4177V46.2773C101.543 45.7224 101.645 45.2326 101.849 44.8081C102.056 44.3836 102.357 44.056 102.751 43.8253C103.146 43.5913 103.614 43.4743 104.155 43.4743C104.917 43.4743 105.519 43.7117 105.96 44.1863C106.402 44.6577 106.622 45.3162 106.622 46.1619V46.8188H103.263C103.323 47.123 103.455 47.362 103.659 47.5358C103.863 47.7097 104.127 47.7966 104.451 47.7966C104.986 47.7966 105.404 47.6094 105.705 47.235L106.477 48.1476C106.266 48.4384 105.967 48.6707 105.579 48.8446C105.195 49.015 104.78 49.1003 104.336 49.1003ZM104.145 44.778C103.65 44.778 103.356 45.1056 103.263 45.7608H104.968V45.6304C104.974 45.3597 104.906 45.1507 104.762 45.0037C104.618 44.8532 104.413 44.778 104.145 44.778ZM115.598 46.2773L116.435 41.6993H118.18L116.631 49H114.805L113.828 44.8382L112.87 49H111.05L109.495 41.6993H111.245L112.083 46.2773L113.086 41.6993H114.58L115.598 46.2773ZM121.254 49.1003C120.421 49.1003 119.748 48.8529 119.233 48.3582C118.718 47.8601 118.461 47.2133 118.461 46.4177V46.2773C118.461 45.7224 118.563 45.2326 118.767 44.8081C118.974 44.3836 119.275 44.056 119.669 43.8253C120.064 43.5913 120.532 43.4743 121.073 43.4743C121.835 43.4743 122.437 43.7117 122.878 44.1863C123.32 44.6577 123.54 45.3162 123.54 46.1619V46.8188H120.181C120.241 47.123 120.373 47.362 120.577 47.5358C120.781 47.7097 121.045 47.7966 121.369 47.7966C121.904 47.7966 122.322 47.6094 122.623 47.235L123.395 48.1476C123.184 48.4384 122.885 48.6707 122.497 48.8446C122.113 49.015 121.698 49.1003 121.254 49.1003ZM121.063 44.778C120.568 44.778 120.274 45.1056 120.181 45.7608H121.886V45.6304C121.892 45.3597 121.824 45.1507 121.68 45.0037C121.536 44.8532 121.331 44.778 121.063 44.778ZM129.261 46.3324C129.261 47.2216 129.078 47.9052 128.71 48.3832C128.342 48.8613 127.824 49.1003 127.156 49.1003C126.604 49.1003 126.159 48.8813 125.822 48.4434L125.752 49H124.237V41.2981H125.927V44.0108C126.241 43.6532 126.647 43.4743 127.145 43.4743C127.821 43.4743 128.342 43.7167 128.71 44.2014C129.078 44.6861 129.261 45.368 129.261 46.2472V46.3324ZM127.567 46.2271C127.567 45.7056 127.496 45.3346 127.356 45.114C127.219 44.89 127.007 44.778 126.719 44.778C126.338 44.778 126.074 44.9234 125.927 45.2143V47.3704C126.071 47.6579 126.338 47.8016 126.729 47.8016C127.127 47.8016 127.379 47.6077 127.486 47.2199C127.54 47.0294 127.567 46.6985 127.567 46.2271ZM132.646 49V41.6993H134.998C135.643 41.6993 136.223 41.8464 136.738 42.1405C137.253 42.4314 137.654 42.8442 137.941 43.379C138.232 43.9106 138.379 44.5072 138.382 45.1691V45.5051C138.382 46.1736 138.24 46.7737 137.956 47.3052C137.675 47.8334 137.278 48.2479 136.763 48.5487C136.251 48.8462 135.68 48.9967 135.048 49H132.646ZM134.406 43.0581V47.6462H135.018C135.523 47.6462 135.91 47.4673 136.181 47.1096C136.452 46.7486 136.587 46.2138 136.587 45.5051V45.1892C136.587 44.4838 136.452 43.9523 136.181 43.5947C135.91 43.237 135.516 43.0581 134.998 43.0581H134.406ZM141.832 49.1003C141 49.1003 140.326 48.8529 139.811 48.3582C139.297 47.8601 139.039 47.2133 139.039 46.4177V46.2773C139.039 45.7224 139.141 45.2326 139.345 44.8081C139.552 44.3836 139.853 44.056 140.248 43.8253C140.642 43.5913 141.11 43.4743 141.652 43.4743C142.414 43.4743 143.016 43.7117 143.457 44.1863C143.898 44.6577 144.119 45.3162 144.119 46.1619V46.8188H140.759C140.819 47.123 140.951 47.362 141.155 47.5358C141.359 47.7097 141.623 47.7966 141.947 47.7966C142.482 47.7966 142.9 47.6094 143.201 47.235L143.973 48.1476C143.763 48.4384 143.463 48.6707 143.076 48.8446C142.691 49.015 142.277 49.1003 141.832 49.1003ZM141.642 44.778C141.147 44.778 140.853 45.1056 140.759 45.7608H142.464V45.6304C142.471 45.3597 142.402 45.1507 142.258 45.0037C142.115 44.8532 141.909 44.778 141.642 44.778ZM147.644 47.4757C147.644 47.3319 147.568 47.2166 147.418 47.1297C147.268 47.0428 146.982 46.9525 146.561 46.8589C146.139 46.7653 145.792 46.6433 145.518 46.4929C145.244 46.3391 145.035 46.1536 144.891 45.9363C144.747 45.719 144.675 45.47 144.675 45.1892C144.675 44.6911 144.881 44.2816 145.292 43.9607C145.703 43.6364 146.241 43.4743 146.907 43.4743C147.622 43.4743 148.197 43.6364 148.631 43.9607C149.066 44.2849 149.283 44.7112 149.283 45.2393H147.589C147.589 44.8048 147.36 44.5875 146.902 44.5875C146.724 44.5875 146.576 44.6376 146.455 44.7379C146.335 44.8348 146.275 44.9569 146.275 45.1039C146.275 45.2544 146.348 45.3764 146.495 45.47C146.642 45.5636 146.876 45.6405 147.197 45.7006C147.522 45.7608 147.806 45.8327 148.05 45.9162C148.865 46.197 149.273 46.7001 149.273 47.4255C149.273 47.9203 149.053 48.3231 148.611 48.634C148.174 48.9448 147.605 49.1003 146.907 49.1003C146.442 49.1003 146.027 49.0167 145.663 48.8496C145.299 48.6824 145.015 48.4551 144.811 48.1676C144.607 47.8802 144.505 47.5776 144.505 47.2601H146.084C146.091 47.5108 146.174 47.6946 146.335 47.8116C146.495 47.9253 146.701 47.9821 146.952 47.9821C147.182 47.9821 147.355 47.9353 147.468 47.8417C147.585 47.7481 147.644 47.6261 147.644 47.4757ZM151.851 49H150.156V43.5746H151.851V49ZM150.056 42.1756C150.056 41.9349 150.142 41.7377 150.316 41.5839C150.49 41.4302 150.716 41.3533 150.993 41.3533C151.271 41.3533 151.496 41.4302 151.67 41.5839C151.844 41.7377 151.931 41.9349 151.931 42.1756C151.931 42.4163 151.844 42.6135 151.67 42.7673C151.496 42.9211 151.271 42.998 150.993 42.998C150.716 42.998 150.49 42.9211 150.316 42.7673C150.142 42.6135 150.056 42.4163 150.056 42.1756ZM152.698 46.2472C152.698 45.699 152.788 45.2143 152.969 44.7931C153.149 44.3719 153.408 44.0476 153.746 43.8203C154.084 43.5896 154.476 43.4743 154.924 43.4743C155.489 43.4743 155.931 43.6649 156.248 44.0459L156.308 43.5746H157.843V48.7944C157.843 49.2724 157.731 49.687 157.507 50.0379C157.286 50.3923 156.965 50.6631 156.544 50.8503C156.123 51.0408 155.635 51.1361 155.08 51.1361C154.682 51.1361 154.296 51.0609 153.921 50.9104C153.55 50.76 153.266 50.5644 153.069 50.3238L153.776 49.3309C154.09 49.702 154.505 49.8875 155.02 49.8875C155.768 49.8875 156.143 49.5031 156.143 48.7342V48.5638C155.819 48.9214 155.409 49.1003 154.914 49.1003C154.252 49.1003 153.718 48.8479 153.31 48.3431C152.902 47.835 152.698 47.1564 152.698 46.3074V46.2472ZM154.393 46.3525C154.393 46.7971 154.476 47.1497 154.644 47.4105C154.811 47.6679 155.045 47.7966 155.346 47.7966C155.71 47.7966 155.976 47.6746 156.143 47.4305V45.1491C155.979 44.9017 155.717 44.778 155.356 44.778C155.055 44.778 154.819 44.9134 154.649 45.1842C154.478 45.4516 154.393 45.841 154.393 46.3525ZM160.355 43.5746L160.41 44.2114C160.784 43.72 161.301 43.4743 161.959 43.4743C162.524 43.4743 162.945 43.6431 163.223 43.9808C163.504 44.3184 163.649 44.8265 163.659 45.5051V49H161.964V45.5753C161.964 45.3012 161.909 45.1006 161.799 44.9736C161.689 44.8432 161.488 44.778 161.197 44.778C160.866 44.778 160.621 44.9084 160.46 45.1691V49H158.77V43.5746H160.355Z" fill="white"/>
<path d="M57.6983 103.636H55.2865L54.8653 105H52.985L55.6626 97.6993H57.3173L60.0149 105H58.1245L57.6983 103.636ZM55.7077 102.277H57.2771L56.4899 99.7451L55.7077 102.277ZM62.3114 102.523V105H60.5514V97.6993H63.4647C64.023 97.6993 64.516 97.8029 64.9439 98.0102C65.3751 98.2141 65.7077 98.5066 65.9417 98.8876C66.1791 99.2654 66.2977 99.6949 66.2977 100.176C66.2977 100.888 66.042 101.458 65.5306 101.886C65.0225 102.311 64.3238 102.523 63.4346 102.523H62.3114ZM62.3114 101.164H63.4647C63.8057 101.164 64.0647 101.079 64.2419 100.908C64.4224 100.738 64.5127 100.497 64.5127 100.186C64.5127 99.8454 64.4208 99.5729 64.2369 99.369C64.053 99.1651 63.8023 99.0615 63.4848 99.0581H62.3114V101.164ZM69.1157 105H67.3608V97.6993H69.1157V105ZM73.1021 103.476C73.1021 103.332 73.0269 103.217 72.8764 103.13C72.726 103.043 72.4402 102.953 72.019 102.859C71.5978 102.765 71.2501 102.643 70.976 102.493C70.7019 102.339 70.493 102.154 70.3493 101.936C70.2055 101.719 70.1336 101.47 70.1336 101.189C70.1336 100.691 70.3392 100.282 70.7504 99.9607C71.1616 99.6364 71.6998 99.4743 72.365 99.4743C73.0803 99.4743 73.6553 99.6364 74.0899 99.9607C74.5244 100.285 74.7417 100.711 74.7417 101.239H73.0469C73.0469 100.805 72.8179 100.587 72.36 100.587C72.1828 100.587 72.034 100.638 71.9137 100.738C71.7934 100.835 71.7332 100.957 71.7332 101.104C71.7332 101.254 71.8067 101.376 71.9538 101.47C72.1009 101.564 72.3349 101.64 72.6558 101.701C72.9801 101.761 73.2642 101.833 73.5082 101.916C74.3239 102.197 74.7317 102.7 74.7317 103.426C74.7317 103.92 74.5111 104.323 74.0698 104.634C73.6319 104.945 73.0636 105.1 72.365 105.1C71.9003 105.1 71.4858 105.017 71.1214 104.85C70.7571 104.682 70.4729 104.455 70.269 104.168C70.0651 103.88 69.9632 103.578 69.9632 103.26H71.5426C71.5493 103.511 71.6329 103.695 71.7934 103.812C71.9538 103.925 72.1594 103.982 72.4101 103.982C72.6408 103.982 72.8129 103.935 72.9266 103.842C73.0436 103.748 73.1021 103.626 73.1021 103.476ZM80.3777 103.797C80.6151 103.797 80.7989 103.733 80.9293 103.606C81.0597 103.476 81.1232 103.295 81.1198 103.065H82.7043C82.7043 103.66 82.4904 104.148 82.0625 104.529C81.638 104.91 81.0897 105.1 80.4178 105.1C79.6289 105.1 79.0072 104.853 78.5525 104.358C78.0979 103.863 77.8706 103.178 77.8706 102.302V102.232C77.8706 101.684 77.9709 101.201 78.1715 100.783C78.3754 100.362 78.6679 100.039 79.0489 99.8153C79.43 99.588 79.8813 99.4743 80.4028 99.4743C81.1081 99.4743 81.668 99.6699 82.0826 100.061C82.4971 100.452 82.7043 100.982 82.7043 101.65H81.1198C81.1198 101.37 81.0513 101.154 80.9142 101.004C80.7772 100.853 80.5933 100.778 80.3627 100.778C79.9248 100.778 79.669 101.057 79.5955 101.615C79.5721 101.793 79.5604 102.037 79.5604 102.347C79.5604 102.892 79.6256 103.27 79.756 103.481C79.8863 103.691 80.0936 103.797 80.3777 103.797ZM83.2057 102.237C83.2057 101.696 83.311 101.214 83.5216 100.793C83.7322 100.369 84.0348 100.043 84.4292 99.8153C84.8237 99.588 85.2867 99.4743 85.8182 99.4743C86.6305 99.4743 87.2706 99.7267 87.7386 100.231C88.2066 100.733 88.4406 101.416 88.4406 102.282V102.342C88.4406 103.188 88.2049 103.86 87.7336 104.358C87.2656 104.853 86.6305 105.1 85.8282 105.1C85.056 105.1 84.4359 104.87 83.9679 104.408C83.4999 103.944 83.2475 103.315 83.2108 102.523L83.2057 102.237ZM84.8955 102.342C84.8955 102.844 84.9741 103.212 85.1312 103.446C85.2883 103.68 85.5207 103.797 85.8282 103.797C86.4299 103.797 86.7374 103.334 86.7508 102.408V102.237C86.7508 101.264 86.4399 100.778 85.8182 100.778C85.2532 100.778 84.9474 101.198 84.9006 102.037L84.8955 102.342ZM90.7371 99.5746L90.7923 100.211C91.1667 99.72 91.6831 99.4743 92.3417 99.4743C92.9066 99.4743 93.3278 99.6431 93.6053 99.9808C93.8861 100.318 94.0315 100.826 94.0415 101.505V105H92.3467V101.575C92.3467 101.301 92.2915 101.101 92.1812 100.974C92.0709 100.843 91.8703 100.778 91.5795 100.778C91.2486 100.778 91.0029 100.908 90.8424 101.169V105H89.1526V99.5746H90.7371ZM97.8222 103.476C97.8222 103.332 97.747 103.217 97.5966 103.13C97.4462 103.043 97.1604 102.953 96.7392 102.859C96.318 102.765 95.9703 102.643 95.6962 102.493C95.4221 102.339 95.2132 102.154 95.0694 101.936C94.9257 101.719 94.8538 101.47 94.8538 101.189C94.8538 100.691 95.0594 100.282 95.4706 99.9607C95.8817 99.6364 96.4199 99.4743 97.0851 99.4743C97.8005 99.4743 98.3755 99.6364 98.81 99.9607C99.2446 100.285 99.4619 100.711 99.4619 101.239H97.7671C97.7671 100.805 97.5381 100.587 97.0801 100.587C96.903 100.587 96.7542 100.638 96.6339 100.738C96.5135 100.835 96.4534 100.957 96.4534 101.104C96.4534 101.254 96.5269 101.376 96.674 101.47C96.8211 101.564 97.0551 101.64 97.376 101.701C97.7002 101.761 97.9844 101.833 98.2284 101.916C99.044 102.197 99.4519 102.7 99.4519 103.426C99.4519 103.92 99.2312 104.323 98.79 104.634C98.3521 104.945 97.7838 105.1 97.0851 105.1C96.6205 105.1 96.206 105.017 95.8416 104.85C95.4773 104.682 95.1931 104.455 94.9892 104.168C94.7853 103.88 94.6833 103.578 94.6833 103.26H96.2628C96.2695 103.511 96.3531 103.695 96.5135 103.812C96.674 103.925 96.8796 103.982 97.1303 103.982C97.3609 103.982 97.5331 103.935 97.6467 103.842C97.7637 103.748 97.8222 103.626 97.8222 103.476ZM103.478 104.413C103.121 104.871 102.638 105.1 102.029 105.1C101.434 105.1 100.983 104.928 100.675 104.584C100.371 104.236 100.219 103.738 100.219 103.09V99.5746H101.909V103.1C101.909 103.564 102.134 103.797 102.586 103.797C102.974 103.797 103.249 103.658 103.413 103.38V99.5746H105.113V105H103.528L103.478 104.413ZM107.64 99.5746L107.695 100.211C108.08 99.72 108.596 99.4743 109.245 99.4743C109.93 99.4743 110.393 99.7468 110.634 100.292C111.001 99.7468 111.533 99.4743 112.228 99.4743C113.328 99.4743 113.893 100.14 113.923 101.47V105H112.228V101.575C112.228 101.298 112.181 101.096 112.088 100.969C111.994 100.842 111.824 100.778 111.576 100.778C111.242 100.778 110.993 100.927 110.829 101.224L110.834 101.294V105H109.139V101.585C109.139 101.301 109.094 101.096 109.004 100.969C108.914 100.842 108.742 100.778 108.488 100.778C108.163 100.778 107.916 100.927 107.745 101.224V105H106.056V99.5746H107.64ZM119.925 102.327C119.925 103.17 119.734 103.843 119.353 104.348C118.976 104.85 118.464 105.1 117.819 105.1C117.321 105.1 116.911 104.918 116.591 104.554V107.086H114.901V99.5746H116.48L116.53 100.076C116.855 99.6749 117.281 99.4743 117.809 99.4743C118.478 99.4743 118.997 99.7217 119.368 100.216C119.739 100.708 119.925 101.385 119.925 102.247V102.327ZM118.235 102.222C118.235 101.259 117.954 100.778 117.393 100.778C116.992 100.778 116.724 100.922 116.591 101.209V103.345C116.738 103.646 117.008 103.797 117.403 103.797C117.941 103.797 118.218 103.332 118.235 102.403V102.222ZM122.643 98.2258V99.5746H123.535V100.748H122.643V103.23C122.643 103.434 122.679 103.576 122.753 103.656C122.827 103.736 122.972 103.777 123.189 103.777C123.356 103.777 123.497 103.766 123.61 103.746V104.955C123.306 105.052 122.989 105.1 122.658 105.1C122.076 105.1 121.647 104.963 121.369 104.689C121.092 104.415 120.953 103.999 120.953 103.441V100.748H120.261V99.5746H120.953V98.2258H122.643ZM125.987 105H124.292V99.5746H125.987V105ZM124.192 98.1756C124.192 97.9349 124.279 97.7377 124.453 97.5839C124.627 97.4302 124.852 97.3533 125.13 97.3533C125.407 97.3533 125.633 97.4302 125.807 97.5839C125.981 97.7377 126.067 97.9349 126.067 98.1756C126.067 98.4163 125.981 98.6135 125.807 98.7673C125.633 98.9211 125.407 98.998 125.13 98.998C124.852 98.998 124.627 98.9211 124.453 98.7673C124.279 98.6135 124.192 98.4163 124.192 98.1756ZM126.82 102.237C126.82 101.696 126.925 101.214 127.135 100.793C127.346 100.369 127.649 100.043 128.043 99.8153C128.437 99.588 128.9 99.4743 129.432 99.4743C130.244 99.4743 130.884 99.7267 131.352 100.231C131.82 100.733 132.054 101.416 132.054 102.282V102.342C132.054 103.188 131.819 103.86 131.347 104.358C130.879 104.853 130.244 105.1 129.442 105.1C128.67 105.1 128.05 104.87 127.582 104.408C127.114 103.944 126.861 103.315 126.825 102.523L126.82 102.237ZM128.509 102.342C128.509 102.844 128.588 103.212 128.745 103.446C128.902 103.68 129.134 103.797 129.442 103.797C130.044 103.797 130.351 103.334 130.365 102.408V102.237C130.365 101.264 130.054 100.778 129.432 100.778C128.867 100.778 128.561 101.198 128.514 102.037L128.509 102.342ZM134.351 99.5746L134.406 100.211C134.78 99.72 135.297 99.4743 135.955 99.4743C136.52 99.4743 136.942 99.6431 137.219 99.9808C137.5 100.318 137.645 100.826 137.655 101.505V105H135.961V101.575C135.961 101.301 135.905 101.101 135.795 100.974C135.685 100.843 135.484 100.778 135.193 100.778C134.862 100.778 134.617 100.908 134.456 101.169V105H132.766V99.5746H134.351Z" fill="white"/>
<path d="M55.0996 169.495V172H53.6348V164.891H56.4082C56.9421 164.891 57.4108 164.988 57.8145 165.184C58.2214 165.379 58.5339 165.657 58.752 166.019C58.9701 166.377 59.0791 166.785 59.0791 167.244C59.0791 167.941 58.8398 168.491 58.3613 168.895C57.8861 169.295 57.2269 169.495 56.3838 169.495H55.0996ZM55.0996 168.309H56.4082C56.7956 168.309 57.0902 168.217 57.292 168.035C57.4971 167.853 57.5996 167.592 57.5996 167.254C57.5996 166.906 57.4971 166.624 57.292 166.409C57.0869 166.194 56.8037 166.084 56.4424 166.077H55.0996V168.309Z" fill="white"/>
<path d="M59.909 169.31C59.909 168.785 60.0099 168.318 60.2117 167.908C60.4135 167.498 60.7033 167.181 61.0809 166.956C61.4617 166.731 61.9028 166.619 62.4041 166.619C63.117 166.619 63.698 166.837 64.1473 167.273C64.5997 167.71 64.852 168.302 64.9041 169.051L64.9139 169.412C64.9139 170.223 64.6876 170.874 64.2352 171.365C63.7827 171.854 63.1756 172.098 62.4139 172.098C61.6521 172.098 61.0434 171.854 60.5877 171.365C60.1352 170.877 59.909 170.213 59.909 169.373V169.31ZM61.3201 169.412C61.3201 169.913 61.4145 170.298 61.6033 170.564C61.7921 170.828 62.0623 170.96 62.4139 170.96C62.7557 170.96 63.0226 170.83 63.2146 170.569C63.4067 170.306 63.5027 169.886 63.5027 169.31C63.5027 168.818 63.4067 168.437 63.2146 168.167C63.0226 167.897 62.7524 167.762 62.4041 167.762C62.059 167.762 61.7921 167.897 61.6033 168.167C61.4145 168.434 61.3201 168.849 61.3201 169.412Z" fill="white"/>
<path d="M70.7389 169.407C70.7389 170.221 70.5533 170.874 70.1822 171.365C69.8144 171.854 69.3163 172.098 68.6881 172.098C68.1542 172.098 67.7229 171.912 67.3941 171.541V174.031H65.983V166.717H67.2916L67.3404 167.234C67.6822 166.824 68.1282 166.619 68.6783 166.619C69.3294 166.619 69.8355 166.86 70.1969 167.342C70.5582 167.824 70.7389 168.488 70.7389 169.334V169.407ZM69.3277 169.305C69.3277 168.813 69.2398 168.434 69.0641 168.167C68.8915 167.9 68.6393 167.767 68.3072 167.767C67.8645 167.767 67.5602 167.936 67.3941 168.274V170.438C67.5667 170.786 67.8743 170.96 68.317 170.96C68.9908 170.96 69.3277 170.408 69.3277 169.305Z" fill="white"/>
<path d="M74.9818 171.463C74.6335 171.886 74.1518 172.098 73.5365 172.098C72.9701 172.098 72.5372 171.935 72.2377 171.609C71.9415 171.284 71.7901 170.807 71.7836 170.179V166.717H73.1947V170.13C73.1947 170.68 73.4454 170.955 73.9467 170.955C74.4252 170.955 74.754 170.789 74.933 170.457V166.717H76.349V172H75.0209L74.9818 171.463Z" fill="white"/>
<path d="M79.1027 172H77.6867V164.5H79.1027V172Z" fill="white"/>
<path d="M83.5312 172C83.4661 171.873 83.4189 171.715 83.3896 171.526C83.0479 171.907 82.6035 172.098 82.0566 172.098C81.5391 172.098 81.1094 171.948 80.7676 171.648C80.429 171.349 80.2598 170.971 80.2598 170.516C80.2598 169.956 80.4665 169.526 80.8799 169.227C81.2965 168.927 81.8971 168.776 82.6816 168.772H83.3311V168.47C83.3311 168.226 83.2676 168.03 83.1406 167.884C83.0169 167.737 82.82 167.664 82.5498 167.664C82.3122 167.664 82.125 167.721 81.9883 167.835C81.8548 167.949 81.7881 168.105 81.7881 168.304H80.377C80.377 167.998 80.4714 167.715 80.6602 167.454C80.849 167.194 81.1159 166.99 81.4609 166.844C81.806 166.694 82.1934 166.619 82.623 166.619C83.2741 166.619 83.79 166.784 84.1709 167.112C84.555 167.438 84.7471 167.897 84.7471 168.489V170.779C84.7503 171.281 84.8203 171.66 84.957 171.917V172H83.5312ZM82.3643 171.019C82.5726 171.019 82.7646 170.973 82.9404 170.882C83.1162 170.787 83.2464 170.662 83.3311 170.506V169.598H82.8037C82.0973 169.598 81.7214 169.842 81.6758 170.33L81.6709 170.413C81.6709 170.589 81.7327 170.734 81.8564 170.848C81.9801 170.962 82.1494 171.019 82.3643 171.019Z" fill="white"/>
<path d="M88.9998 168.04C88.8077 168.014 88.6385 168.001 88.492 168.001C87.9581 168.001 87.6082 168.182 87.4422 168.543V172H86.0311V166.717H87.3641L87.4031 167.347C87.6863 166.862 88.0786 166.619 88.5799 166.619C88.7361 166.619 88.8826 166.64 89.0193 166.683L88.9998 168.04Z" fill="white"/>
<path d="M94.0629 172H92.6469V164.5H94.0629V172Z" fill="white"/>
<path d="M96.9191 172H95.5031V166.717H96.9191V172ZM95.4201 165.35C95.4201 165.138 95.4901 164.964 95.6301 164.827C95.7733 164.69 95.967 164.622 96.2111 164.622C96.452 164.622 96.6441 164.69 96.7873 164.827C96.9305 164.964 97.0021 165.138 97.0021 165.35C97.0021 165.564 96.9289 165.74 96.7824 165.877C96.6392 166.014 96.4488 166.082 96.2111 166.082C95.9735 166.082 95.7814 166.014 95.635 165.877C95.4917 165.74 95.4201 165.564 95.4201 165.35Z" fill="white"/>
<path d="M103.047 169.407C103.047 170.254 102.866 170.914 102.505 171.39C102.144 171.862 101.639 172.098 100.991 172.098C100.418 172.098 99.9609 171.878 99.6191 171.438L99.5557 172H98.2861V164.5H99.6973V167.19C100.023 166.81 100.451 166.619 100.981 166.619C101.626 166.619 102.131 166.857 102.495 167.332C102.863 167.804 103.047 168.47 103.047 169.329V169.407ZM101.636 169.305C101.636 168.771 101.551 168.382 101.382 168.138C101.213 167.89 100.96 167.767 100.625 167.767C100.176 167.767 99.8665 167.951 99.6973 168.318V170.403C99.8698 170.774 100.182 170.96 100.635 170.96C101.09 170.96 101.39 170.735 101.533 170.286C101.602 170.071 101.636 169.744 101.636 169.305Z" fill="white"/>
<path d="M107.09 168.04C106.898 168.014 106.728 168.001 106.582 168.001C106.048 168.001 105.698 168.182 105.532 168.543V172H104.121V166.717H105.454L105.493 167.347C105.776 166.862 106.168 166.619 106.67 166.619C106.826 166.619 106.972 166.64 107.109 166.683L107.09 168.04Z" fill="white"/>
<path d="M110.888 172C110.823 171.873 110.776 171.715 110.747 171.526C110.405 171.907 109.961 172.098 109.414 172.098C108.896 172.098 108.466 171.948 108.125 171.648C107.786 171.349 107.617 170.971 107.617 170.516C107.617 169.956 107.824 169.526 108.237 169.227C108.654 168.927 109.254 168.776 110.039 168.772H110.688V168.47C110.688 168.226 110.625 168.03 110.498 167.884C110.374 167.737 110.177 167.664 109.907 167.664C109.669 167.664 109.482 167.721 109.345 167.835C109.212 167.949 109.145 168.105 109.145 168.304H107.734C107.734 167.998 107.828 167.715 108.017 167.454C108.206 167.194 108.473 166.99 108.818 166.844C109.163 166.694 109.55 166.619 109.98 166.619C110.631 166.619 111.147 166.784 111.528 167.112C111.912 167.438 112.104 167.897 112.104 168.489V170.779C112.107 171.281 112.177 171.66 112.314 171.917V172H110.888ZM109.721 171.019C109.93 171.019 110.122 170.973 110.297 170.882C110.473 170.787 110.603 170.662 110.688 170.506V169.598H110.161C109.454 169.598 109.078 169.842 109.033 170.33L109.028 170.413C109.028 170.589 109.09 170.734 109.213 170.848C109.337 170.962 109.506 171.019 109.721 171.019Z" fill="white"/>
<path d="M116.357 168.04C116.165 168.014 115.996 168.001 115.849 168.001C115.315 168.001 114.965 168.182 114.799 168.543V172H113.388V166.717H114.721L114.76 167.347C115.043 166.862 115.436 166.619 115.937 166.619C116.093 166.619 116.24 166.64 116.376 166.683L116.357 168.04Z" fill="white"/>
<path d="M118.73 172H117.314V166.717H118.73V172ZM117.231 165.35C117.231 165.138 117.301 164.964 117.441 164.827C117.584 164.69 117.778 164.622 118.022 164.622C118.263 164.622 118.455 164.69 118.598 164.827C118.741 164.964 118.813 165.138 118.813 165.35C118.813 165.564 118.739 165.74 118.593 165.877C118.45 166.014 118.259 166.082 118.022 166.082C117.784 166.082 117.592 166.014 117.446 165.877C117.302 165.74 117.231 165.564 117.231 165.35Z" fill="white"/>
<path d="M122.528 172.098C121.754 172.098 121.122 171.86 120.634 171.385C120.149 170.91 119.906 170.276 119.906 169.485V169.349C119.906 168.818 120.009 168.344 120.214 167.928C120.419 167.508 120.709 167.186 121.083 166.961C121.461 166.733 121.89 166.619 122.372 166.619C123.095 166.619 123.663 166.847 124.076 167.303C124.493 167.758 124.701 168.405 124.701 169.241V169.817H121.337C121.382 170.162 121.519 170.439 121.747 170.647C121.978 170.856 122.27 170.96 122.621 170.96C123.165 170.96 123.59 170.763 123.896 170.369L124.589 171.146C124.377 171.445 124.091 171.679 123.729 171.849C123.368 172.015 122.968 172.098 122.528 172.098ZM122.367 167.762C122.087 167.762 121.859 167.856 121.684 168.045C121.511 168.234 121.4 168.504 121.352 168.855H123.314V168.743C123.308 168.431 123.223 168.19 123.061 168.021C122.898 167.848 122.667 167.762 122.367 167.762Z" fill="white"/>
<path d="M128.568 170.54C128.568 170.368 128.482 170.232 128.309 170.135C128.14 170.034 127.867 169.944 127.489 169.866C126.233 169.603 125.604 169.069 125.604 168.265C125.604 167.796 125.798 167.405 126.185 167.093C126.576 166.777 127.085 166.619 127.714 166.619C128.384 166.619 128.92 166.777 129.32 167.093C129.724 167.409 129.926 167.819 129.926 168.323H128.514C128.514 168.121 128.449 167.955 128.319 167.825C128.189 167.692 127.985 167.625 127.709 167.625C127.471 167.625 127.287 167.679 127.157 167.786C127.027 167.894 126.962 168.03 126.962 168.196C126.962 168.353 127.035 168.479 127.181 168.577C127.331 168.672 127.582 168.755 127.933 168.826C128.285 168.895 128.581 168.973 128.822 169.061C129.568 169.334 129.94 169.808 129.94 170.481C129.94 170.963 129.734 171.354 129.32 171.653C128.907 171.95 128.373 172.098 127.719 172.098C127.276 172.098 126.882 172.02 126.537 171.863C126.195 171.704 125.927 171.487 125.731 171.214C125.536 170.937 125.438 170.639 125.438 170.32H126.776C126.789 170.571 126.882 170.763 127.054 170.896C127.227 171.03 127.458 171.097 127.748 171.097C128.018 171.097 128.221 171.046 128.358 170.945C128.498 170.841 128.568 170.706 128.568 170.54Z" fill="white"/>
<path d="M135.233 172H133.817V164.5H135.233V172Z" fill="white"/>
<path d="M138.089 172H136.673V166.717H138.089V172ZM136.59 165.35C136.59 165.138 136.66 164.964 136.8 164.827C136.943 164.69 137.137 164.622 137.381 164.622C137.622 164.622 137.814 164.69 137.957 164.827C138.1 164.964 138.172 165.138 138.172 165.35C138.172 165.564 138.099 165.74 137.952 165.877C137.809 166.014 137.619 166.082 137.381 166.082C137.143 166.082 136.951 166.014 136.805 165.877C136.662 165.74 136.59 165.564 136.59 165.35Z" fill="white"/>
<path d="M141.375 169.881L140.867 170.389V172H139.456V164.5H140.867V168.655L141.141 168.304L142.493 166.717H144.188L142.278 168.919L144.354 172H142.732L141.375 169.881Z" fill="white"/>
<path d="M147.332 172.098C146.557 172.098 145.926 171.86 145.437 171.385C144.952 170.91 144.71 170.276 144.71 169.485V169.349C144.71 168.818 144.812 168.344 145.017 167.928C145.222 167.508 145.512 167.186 145.887 166.961C146.264 166.733 146.694 166.619 147.176 166.619C147.898 166.619 148.466 166.847 148.88 167.303C149.296 167.758 149.505 168.405 149.505 169.241V169.817H146.14C146.186 170.162 146.323 170.439 146.551 170.647C146.782 170.856 147.073 170.96 147.425 170.96C147.968 170.96 148.393 170.763 148.699 170.369L149.392 171.146C149.181 171.445 148.894 171.679 148.533 171.849C148.172 172.015 147.771 172.098 147.332 172.098ZM147.171 167.762C146.891 167.762 146.663 167.856 146.487 168.045C146.315 168.234 146.204 168.504 146.155 168.855H148.118V168.743C148.111 168.431 148.027 168.19 147.864 168.021C147.701 167.848 147.47 167.762 147.171 167.762Z" fill="white"/>
<path d="M56.2666 181.397H55.0996V184H53.6348V176.891H56.2764C57.1162 176.891 57.764 177.078 58.2197 177.452C58.6755 177.826 58.9033 178.355 58.9033 179.039C58.9033 179.524 58.7975 179.929 58.5859 180.255C58.3776 180.577 58.0602 180.834 57.6338 181.026L59.1719 183.932V184H57.5996L56.2666 181.397ZM55.0996 180.211H56.2812C56.6491 180.211 56.9339 180.118 57.1357 179.933C57.3376 179.744 57.4385 179.485 57.4385 179.156C57.4385 178.821 57.3424 178.557 57.1504 178.365C56.9616 178.173 56.6702 178.077 56.2764 178.077H55.0996V180.211Z" fill="white"/>
<path d="M62.5604 184.098C61.7856 184.098 61.1541 183.86 60.6658 183.385C60.1808 182.91 59.9383 182.276 59.9383 181.485V181.349C59.9383 180.818 60.0408 180.344 60.2459 179.928C60.451 179.508 60.7407 179.186 61.115 178.961C61.4926 178.733 61.9223 178.619 62.4041 178.619C63.1268 178.619 63.6948 178.847 64.1082 179.303C64.5249 179.758 64.7332 180.405 64.7332 181.241V181.817H61.3689C61.4145 182.162 61.5512 182.439 61.7791 182.647C62.0102 182.856 62.3016 182.96 62.6531 182.96C63.1967 182.96 63.6215 182.763 63.9275 182.369L64.6209 183.146C64.4093 183.445 64.1229 183.679 63.7615 183.849C63.4002 184.015 62.9998 184.098 62.5604 184.098ZM62.3992 179.762C62.1193 179.762 61.8914 179.856 61.7156 180.045C61.5431 180.234 61.4324 180.504 61.3836 180.855H63.3465V180.743C63.34 180.431 63.2553 180.19 63.0926 180.021C62.9298 179.848 62.6987 179.762 62.3992 179.762Z" fill="white"/>
<path d="M68.8004 184C68.7353 183.873 68.6881 183.715 68.6588 183.526C68.317 183.907 67.8727 184.098 67.3258 184.098C66.8082 184.098 66.3785 183.948 66.0367 183.648C65.6982 183.349 65.5289 182.971 65.5289 182.516C65.5289 181.956 65.7356 181.526 66.149 181.227C66.5657 180.927 67.1663 180.776 67.9508 180.772H68.6002V180.47C68.6002 180.226 68.5367 180.03 68.4098 179.884C68.2861 179.737 68.0891 179.664 67.8189 179.664C67.5813 179.664 67.3941 179.721 67.2574 179.835C67.124 179.949 67.0572 180.105 67.0572 180.304H65.6461C65.6461 179.998 65.7405 179.715 65.9293 179.454C66.1181 179.194 66.385 178.99 66.7301 178.844C67.0751 178.694 67.4625 178.619 67.8922 178.619C68.5432 178.619 69.0592 178.784 69.44 179.112C69.8242 179.438 70.0162 179.897 70.0162 180.489V182.779C70.0195 183.281 70.0895 183.66 70.2262 183.917V184H68.8004ZM67.6334 183.019C67.8417 183.019 68.0338 182.973 68.2096 182.882C68.3854 182.787 68.5156 182.662 68.6002 182.506V181.598H68.0729C67.3665 181.598 66.9905 181.842 66.9449 182.33L66.94 182.413C66.94 182.589 67.0019 182.734 67.1256 182.848C67.2493 182.962 67.4186 183.019 67.6334 183.019Z" fill="white"/>
<path d="M73.4975 182.96C73.7579 182.96 73.9695 182.888 74.1322 182.745C74.295 182.602 74.3796 182.411 74.3861 182.174H75.7094C75.7061 182.532 75.6085 182.861 75.4164 183.16C75.2243 183.456 74.9607 183.688 74.6254 183.854C74.2934 184.016 73.9255 184.098 73.5219 184.098C72.7667 184.098 72.171 183.858 71.7348 183.38C71.2986 182.898 71.0805 182.234 71.0805 181.388V181.295C71.0805 180.481 71.2969 179.832 71.7299 179.347C72.1628 178.862 72.7569 178.619 73.5121 178.619C74.1729 178.619 74.7019 178.808 75.099 179.186C75.4994 179.56 75.7029 180.06 75.7094 180.685H74.3861C74.3796 180.411 74.295 180.19 74.1322 180.021C73.9695 179.848 73.7546 179.762 73.4877 179.762C73.1589 179.762 72.9099 179.882 72.7406 180.123C72.5746 180.361 72.4916 180.748 72.4916 181.285V181.432C72.4916 181.975 72.5746 182.366 72.7406 182.604C72.9066 182.841 73.1589 182.96 73.4975 182.96Z" fill="white"/>
<path d="M78.4045 177.418V178.717H79.3078V179.752H78.4045V182.389C78.4045 182.584 78.4419 182.724 78.5168 182.809C78.5917 182.893 78.7349 182.936 78.9465 182.936C79.1027 182.936 79.2411 182.924 79.3615 182.901V183.971C79.0848 184.055 78.8 184.098 78.507 184.098C77.5174 184.098 77.0129 183.598 76.9934 182.599V179.752H76.2219V178.717H76.9934V177.418H78.4045Z" fill="white"/>
<path d="M80.6602 185.782L79.9229 185.396L80.0986 185.079C80.3167 184.682 80.429 184.286 80.4355 183.893V182.799H81.627L81.6221 183.775C81.6188 184.137 81.5277 184.501 81.3486 184.869C81.1696 185.237 80.9401 185.541 80.6602 185.782Z" fill="white"/>
<path d="M88.4869 182.54C88.4869 182.368 88.4007 182.232 88.2281 182.135C88.0589 182.034 87.7854 181.944 87.4078 181.866C86.1513 181.603 85.523 181.069 85.523 180.265C85.523 179.796 85.7167 179.405 86.1041 179.093C86.4947 178.777 87.0042 178.619 87.6324 178.619C88.303 178.619 88.8385 178.777 89.2389 179.093C89.6425 179.409 89.8443 179.819 89.8443 180.323H88.4332C88.4332 180.121 88.3681 179.955 88.2379 179.825C88.1077 179.692 87.9042 179.625 87.6275 179.625C87.3899 179.625 87.206 179.679 87.0758 179.786C86.9456 179.894 86.8805 180.03 86.8805 180.196C86.8805 180.353 86.9537 180.479 87.1002 180.577C87.2499 180.672 87.5006 180.755 87.8521 180.826C88.2037 180.895 88.4999 180.973 88.7408 181.061C89.4863 181.334 89.859 181.808 89.859 182.481C89.859 182.963 89.6523 183.354 89.2389 183.653C88.8255 183.95 88.2916 184.098 87.6373 184.098C87.1946 184.098 86.8007 184.02 86.4557 183.863C86.1139 183.704 85.8453 183.487 85.65 183.214C85.4547 182.937 85.357 182.639 85.357 182.32H86.6949C86.7079 182.571 86.8007 182.763 86.9732 182.896C87.1458 183.03 87.3769 183.097 87.6666 183.097C87.9368 183.097 88.1402 183.046 88.277 182.945C88.4169 182.841 88.4869 182.706 88.4869 182.54Z" fill="white"/>
<path d="M92.6615 177.418V178.717H93.5648V179.752H92.6615V182.389C92.6615 182.584 92.699 182.724 92.7738 182.809C92.8487 182.893 92.9919 182.936 93.2035 182.936C93.3598 182.936 93.4981 182.924 93.6186 182.901V183.971C93.3419 184.055 93.057 184.098 92.7641 184.098C91.7745 184.098 91.2699 183.598 91.2504 182.599V179.752H90.4789V178.717H91.2504V177.418H92.6615Z" fill="white"/>
<path d="M96.5236 182.003L97.5002 178.717H99.0139L96.8898 184.82L96.7727 185.099C96.4569 185.789 95.9361 186.134 95.2102 186.134C95.0051 186.134 94.7967 186.103 94.5852 186.041V184.972L94.8 184.977C95.0669 184.977 95.2655 184.936 95.3957 184.854C95.5292 184.773 95.6333 184.638 95.7082 184.449L95.8742 184.015L94.0236 178.717H95.5422L96.5236 182.003Z" fill="white"/>
<path d="M101.26 184H99.8438V176.5H101.26V184Z" fill="white"/>
<path d="M105.058 184.098C104.284 184.098 103.652 183.86 103.164 183.385C102.679 182.91 102.436 182.276 102.436 181.485V181.349C102.436 180.818 102.539 180.344 102.744 179.928C102.949 179.508 103.239 179.186 103.613 178.961C103.991 178.733 104.42 178.619 104.902 178.619C105.625 178.619 106.193 178.847 106.606 179.303C107.023 179.758 107.231 180.405 107.231 181.241V181.817H103.867C103.913 182.162 104.049 182.439 104.277 182.647C104.508 182.856 104.8 182.96 105.151 182.96C105.695 182.96 106.12 182.763 106.426 182.369L107.119 183.146C106.907 183.445 106.621 183.679 106.26 183.849C105.898 184.015 105.498 184.098 105.058 184.098ZM104.897 179.762C104.617 179.762 104.389 179.856 104.214 180.045C104.041 180.234 103.93 180.504 103.882 180.855H105.845V180.743C105.838 180.431 105.753 180.19 105.591 180.021C105.428 179.848 105.197 179.762 104.897 179.762Z" fill="white"/>
<path d="M108.017 181.319C108.017 180.496 108.201 179.84 108.569 179.352C108.94 178.863 109.446 178.619 110.088 178.619C110.602 178.619 111.027 178.811 111.362 179.195V176.5H112.778V184H111.504L111.435 183.438C111.084 183.878 110.631 184.098 110.078 184.098C109.456 184.098 108.956 183.854 108.579 183.365C108.204 182.874 108.017 182.192 108.017 181.319ZM109.428 181.422C109.428 181.917 109.515 182.296 109.687 182.56C109.86 182.823 110.11 182.955 110.439 182.955C110.875 182.955 111.183 182.771 111.362 182.403V180.318C111.186 179.951 110.882 179.767 110.449 179.767C109.768 179.767 109.428 180.318 109.428 181.422Z" fill="white"/>
<path d="M55.7393 194.96C55.9997 194.96 56.2113 194.888 56.374 194.745C56.5368 194.602 56.6214 194.411 56.6279 194.174H57.9512C57.9479 194.532 57.8503 194.861 57.6582 195.16C57.4661 195.456 57.2025 195.688 56.8672 195.854C56.5352 196.016 56.1673 196.098 55.7637 196.098C55.0085 196.098 54.4128 195.858 53.9766 195.38C53.5404 194.898 53.3223 194.234 53.3223 193.388V193.295C53.3223 192.481 53.5387 191.832 53.9717 191.347C54.4046 190.862 54.9987 190.619 55.7539 190.619C56.4147 190.619 56.9437 190.808 57.3408 191.186C57.7412 191.56 57.9447 192.06 57.9512 192.685H56.6279C56.6214 192.411 56.5368 192.19 56.374 192.021C56.2113 191.848 55.9964 191.762 55.7295 191.762C55.4007 191.762 55.1517 191.882 54.9824 192.123C54.8164 192.361 54.7334 192.748 54.7334 193.285V193.432C54.7334 193.975 54.8164 194.366 54.9824 194.604C55.1484 194.841 55.4007 194.96 55.7393 194.96Z" fill="white"/>
<path d="M58.7371 193.31C58.7371 192.785 58.838 192.318 59.0398 191.908C59.2417 191.498 59.5314 191.181 59.909 190.956C60.2898 190.731 60.7309 190.619 61.2322 190.619C61.9451 190.619 62.5262 190.837 62.9754 191.273C63.4279 191.71 63.6801 192.302 63.7322 193.051L63.742 193.412C63.742 194.223 63.5158 194.874 63.0633 195.365C62.6108 195.854 62.0037 196.098 61.242 196.098C60.4803 196.098 59.8715 195.854 59.4158 195.365C58.9633 194.877 58.7371 194.213 58.7371 193.373V193.31ZM60.1482 193.412C60.1482 193.913 60.2426 194.298 60.4314 194.564C60.6202 194.828 60.8904 194.96 61.242 194.96C61.5838 194.96 61.8507 194.83 62.0428 194.569C62.2348 194.306 62.3309 193.886 62.3309 193.31C62.3309 192.818 62.2348 192.437 62.0428 192.167C61.8507 191.897 61.5805 191.762 61.2322 191.762C60.8872 191.762 60.6202 191.897 60.4314 192.167C60.2426 192.434 60.1482 192.849 60.1482 193.412Z" fill="white"/>
<path d="M66.1344 190.717L66.1783 191.308C66.5527 190.849 67.0589 190.619 67.6969 190.619C68.3772 190.619 68.8443 190.888 69.0982 191.425C69.4693 190.888 69.9983 190.619 70.6852 190.619C71.2581 190.619 71.6845 190.787 71.9645 191.122C72.2444 191.454 72.3844 191.955 72.3844 192.626V196H70.9684V192.631C70.9684 192.331 70.9098 192.113 70.7926 191.977C70.6754 191.837 70.4687 191.767 70.1725 191.767C69.7493 191.767 69.4563 191.968 69.2936 192.372L69.2984 196H67.8873V192.636C67.8873 192.33 67.8271 192.108 67.7066 191.972C67.5862 191.835 67.3811 191.767 67.0914 191.767C66.691 191.767 66.4013 191.933 66.2223 192.265V196H64.8111V190.717H66.1344Z" fill="white"/>
<path d="M78.4291 193.407C78.4291 194.221 78.2436 194.874 77.8725 195.365C77.5046 195.854 77.0066 196.098 76.3783 196.098C75.8445 196.098 75.4132 195.912 75.0844 195.541V198.031H73.6732V190.717H74.9818L75.0307 191.234C75.3725 190.824 75.8184 190.619 76.3686 190.619C77.0196 190.619 77.5258 190.86 77.8871 191.342C78.2484 191.824 78.4291 192.488 78.4291 193.334V193.407ZM77.018 193.305C77.018 192.813 76.9301 192.434 76.7543 192.167C76.5818 191.9 76.3295 191.767 75.9975 191.767C75.5548 191.767 75.2504 191.936 75.0844 192.274V194.438C75.2569 194.786 75.5645 194.96 76.0072 194.96C76.6811 194.96 77.018 194.408 77.018 193.305Z" fill="white"/>
<path d="M79.2883 193.31C79.2883 192.785 79.3892 192.318 79.591 191.908C79.7928 191.498 80.0826 191.181 80.4602 190.956C80.841 190.731 81.2821 190.619 81.7834 190.619C82.4963 190.619 83.0773 190.837 83.5266 191.273C83.979 191.71 84.2313 192.302 84.2834 193.051L84.2932 193.412C84.2932 194.223 84.0669 194.874 83.6145 195.365C83.162 195.854 82.5549 196.098 81.7932 196.098C81.0314 196.098 80.4227 195.854 79.967 195.365C79.5145 194.877 79.2883 194.213 79.2883 193.373V193.31ZM80.6994 193.412C80.6994 193.913 80.7938 194.298 80.9826 194.564C81.1714 194.828 81.4416 194.96 81.7932 194.96C82.135 194.96 82.4019 194.83 82.5939 194.569C82.786 194.306 82.882 193.886 82.882 193.31C82.882 192.818 82.786 192.437 82.5939 192.167C82.4019 191.897 82.1317 191.762 81.7834 191.762C81.4383 191.762 81.1714 191.897 80.9826 192.167C80.7938 192.434 80.6994 192.849 80.6994 193.412Z" fill="white"/>
<path d="M86.6611 190.717L86.7051 191.327C87.0827 190.855 87.5889 190.619 88.2236 190.619C88.7835 190.619 89.2002 190.784 89.4736 191.112C89.7471 191.441 89.887 191.933 89.8936 192.587V196H88.4824V192.621C88.4824 192.322 88.4173 192.105 88.2871 191.972C88.1569 191.835 87.9404 191.767 87.6377 191.767C87.2406 191.767 86.9427 191.936 86.7441 192.274V196H85.333V190.717H86.6611Z" fill="white"/>
<path d="M93.5994 196.098C92.8247 196.098 92.1932 195.86 91.7049 195.385C91.2199 194.91 90.9773 194.276 90.9773 193.485V193.349C90.9773 192.818 91.0799 192.344 91.285 191.928C91.49 191.508 91.7798 191.186 92.1541 190.961C92.5317 190.733 92.9614 190.619 93.4432 190.619C94.1658 190.619 94.7339 190.847 95.1473 191.303C95.5639 191.758 95.7723 192.405 95.7723 193.241V193.817H92.408C92.4536 194.162 92.5903 194.439 92.8182 194.647C93.0493 194.856 93.3406 194.96 93.6922 194.96C94.2358 194.96 94.6606 194.763 94.9666 194.369L95.66 195.146C95.4484 195.445 95.1619 195.679 94.8006 195.849C94.4393 196.015 94.0389 196.098 93.5994 196.098ZM93.4383 191.762C93.1583 191.762 92.9305 191.856 92.7547 192.045C92.5822 192.234 92.4715 192.504 92.4227 192.855H94.3855V192.743C94.379 192.431 94.2944 192.19 94.1316 192.021C93.9689 191.848 93.7378 191.762 93.4383 191.762Z" fill="white"/>
<path d="M98.0768 190.717L98.1207 191.327C98.4983 190.855 99.0045 190.619 99.6393 190.619C100.199 190.619 100.616 190.784 100.889 191.112C101.163 191.441 101.303 191.933 101.309 192.587V196H99.898V192.621C99.898 192.322 99.8329 192.105 99.7027 191.972C99.5725 191.835 99.3561 191.767 99.0533 191.767C98.6562 191.767 98.3583 191.936 98.1598 192.274V196H96.7486V190.717H98.0768Z" fill="white"/>
<path d="M104.273 189.418V190.717H105.176V191.752H104.273V194.389C104.273 194.584 104.31 194.724 104.385 194.809C104.46 194.893 104.603 194.936 104.815 194.936C104.971 194.936 105.109 194.924 105.23 194.901V195.971C104.953 196.055 104.668 196.098 104.375 196.098C103.386 196.098 102.881 195.598 102.862 194.599V191.752H102.09V190.717H102.862V189.418H104.273Z" fill="white"/>
<path d="M109.024 194.54C109.024 194.368 108.937 194.232 108.765 194.135C108.596 194.034 108.322 193.944 107.945 193.866C106.688 193.603 106.06 193.069 106.06 192.265C106.06 191.796 106.253 191.405 106.641 191.093C107.031 190.777 107.541 190.619 108.169 190.619C108.84 190.619 109.375 190.777 109.776 191.093C110.179 191.409 110.381 191.819 110.381 192.323H108.97C108.97 192.121 108.905 191.955 108.775 191.825C108.644 191.692 108.441 191.625 108.164 191.625C107.927 191.625 107.743 191.679 107.612 191.786C107.482 191.894 107.417 192.03 107.417 192.196C107.417 192.353 107.49 192.479 107.637 192.577C107.787 192.672 108.037 192.755 108.389 192.826C108.74 192.895 109.037 192.973 109.278 193.061C110.023 193.334 110.396 193.808 110.396 194.481C110.396 194.963 110.189 195.354 109.776 195.653C109.362 195.95 108.828 196.098 108.174 196.098C107.731 196.098 107.337 196.02 106.992 195.863C106.651 195.704 106.382 195.487 106.187 195.214C105.991 194.937 105.894 194.639 105.894 194.32H107.232C107.245 194.571 107.337 194.763 107.51 194.896C107.682 195.03 107.914 195.097 108.203 195.097C108.474 195.097 108.677 195.046 108.814 194.945C108.954 194.841 109.024 194.706 109.024 194.54Z" fill="white"/>
<path d="M111.875 197.782L111.138 197.396L111.313 197.079C111.532 196.682 111.644 196.286 111.65 195.893V194.799H112.842L112.837 195.775C112.834 196.137 112.743 196.501 112.563 196.869C112.384 197.237 112.155 197.541 111.875 197.782Z" fill="white"/>
<path d="M116.582 196.098C115.807 196.098 115.176 195.86 114.687 195.385C114.202 194.91 113.96 194.276 113.96 193.485V193.349C113.96 192.818 114.062 192.344 114.267 191.928C114.472 191.508 114.762 191.186 115.137 190.961C115.514 190.733 115.944 190.619 116.426 190.619C117.148 190.619 117.716 190.847 118.13 191.303C118.546 191.758 118.755 192.405 118.755 193.241V193.817H115.39C115.436 194.162 115.573 194.439 115.801 194.647C116.032 194.856 116.323 194.96 116.675 194.96C117.218 194.96 117.643 194.763 117.949 194.369L118.642 195.146C118.431 195.445 118.144 195.679 117.783 195.849C117.422 196.015 117.021 196.098 116.582 196.098ZM116.421 191.762C116.141 191.762 115.913 191.856 115.737 192.045C115.565 192.234 115.454 192.504 115.405 192.855H117.368V192.743C117.361 192.431 117.277 192.19 117.114 192.021C116.951 191.848 116.72 191.762 116.421 191.762Z" fill="white"/>
<path d="M121.45 189.418V190.717H122.353V191.752H121.45V194.389C121.45 194.584 121.487 194.724 121.562 194.809C121.637 194.893 121.78 194.936 121.992 194.936C122.148 194.936 122.286 194.924 122.407 194.901V195.971C122.13 196.055 121.845 196.098 121.552 196.098C120.563 196.098 120.058 195.598 120.039 194.599V191.752H119.267V190.717H120.039V189.418H121.45Z" fill="white"/>
<path d="M125.537 194.96C125.797 194.96 126.009 194.888 126.171 194.745C126.334 194.602 126.419 194.411 126.425 194.174H127.748C127.745 194.532 127.648 194.861 127.455 195.16C127.263 195.456 127 195.688 126.664 195.854C126.332 196.016 125.965 196.098 125.561 196.098C124.806 196.098 124.21 195.858 123.774 195.38C123.338 194.898 123.12 194.234 123.12 193.388V193.295C123.12 192.481 123.336 191.832 123.769 191.347C124.202 190.862 124.796 190.619 125.551 190.619C126.212 190.619 126.741 190.808 127.138 191.186C127.538 191.56 127.742 192.06 127.748 192.685H126.425C126.419 192.411 126.334 192.19 126.171 192.021C126.009 191.848 125.794 191.762 125.527 191.762C125.198 191.762 124.949 191.882 124.78 192.123C124.614 192.361 124.531 192.748 124.531 193.285V193.432C124.531 193.975 124.614 194.366 124.78 194.604C124.946 194.841 125.198 194.96 125.537 194.96Z" fill="white"/>
<path d="M128.827 195.307C128.827 195.082 128.902 194.9 129.052 194.76C129.205 194.62 129.395 194.55 129.623 194.55C129.854 194.55 130.045 194.62 130.195 194.76C130.348 194.9 130.424 195.082 130.424 195.307C130.424 195.528 130.349 195.709 130.199 195.849C130.05 195.985 129.858 196.054 129.623 196.054C129.392 196.054 129.202 195.985 129.052 195.849C128.902 195.709 128.827 195.528 128.827 195.307Z" fill="white"/>
</svg>
